v 1.742900644343043 6.916267021793467 -1
v 1 14.999996886499217 -1.0000000000000002
v 2 14.999996886499217 -1.0000000000000004
v 3 14.999996886499217 -1.0000000000000007
v 4 14.999996886499217 -1.0000000000000009
v 5 14.999996886499217 -1.0000000000000011
v 6 14.999996886499217 -1.0000000000000013
v 7 14.999996886499217 -1.0000000000000016
v 8 14.999996886499217 -1.0000000000000018
v 9 14.999996886499217 -1.000000000000002
v 10 14.999996886499217 -1.0000000000000022
v 11 14.999996886499217 -1.0000000000000024
v 12 14.999996886499217 -1.0000000000000027
v 13 14.999996886499217 -1.0000000000000029
v 14 14.999996886499217 -1.0000000000000031
v 15 14.999996886499217 -1.0000000000000033
v 16 14.999996886499217 -1.0000000000000036
v 17 14.999996886499217 -1.0000000000000038
v 18 14.999996886499217 -1.000000000000004
v 19 14.999996886499217 -1.0000000000000042
v 20 14.999996886499217 -1.0000000000000042
v 21 14.999996886499217 -1.0000000000000044
v 22 14.999996886499217 -1.0000000000000047
v 23 14.999996886499217 -1.0000000000000049
v 24 14.999996886499217 -1.0000000000000051
v 25 14.999996886499217 -1.0000000000000051
v 26 14.999996886499217 -1.0000000000000053
v 27 14.999996886499217 -1.0000000000000056
v 28 14.999996886499217 -1.0000000000000056
v 29 14.999996886499217 -1.0000000000000058
v 30 14.999996886499217 -1.000000000000006
v 31 14.999996886499217 -1.000000000000006
v 32 14.999996886499217 -1.0000000000000062
v 33 14.999996886499217 -1.0000000000000062
v 34 14.999996886499217 -1.0000000000000064
v 35 14.999996886499217 -1.0000000000000064
v 36 14.999996886499217 -1.0000000000000067
v 37 14.999996886499217 -1.0000000000000067
v 38 14.999996886499217 -1.0000000000000069
v 39 14.999996886499217 -1.0000000000000069
v 40 14.999996886499217 -1.0000000000000069
v 41 14.999996886499217 -1.0000000000000071
v 42 14.999996886499217 -1.0000000000000071
v 43 14.999996886499217 -1.0000000000000071
v 44 14.999996886499217 -1.0000000000000073
v 45 14.999996886499217 -1.0000000000000073
v 46 14.999996886499217 -1.0000000000000073
v 47 14.999996886499217 -1.0000000000000073
v 48 14.999996886499217 -1.0000000000000073
v 49 14.999996886499217 -1.0000000000000073
v 50 14.999996886499217 -1.0000000000000073
v 51 14.999996886499217 -1.0000000000000073
v 52 14.999996886499217 -1.0000000000000073
v 53 14.999996886499217 -1.0000000000000073
v 54 14.999996886499217 -1.0000000000000073
v 55 14.999996886499217 -1.0000000000000073
v 56 14.999996886499217 -1.0000000000000073
v 57 14.999996886499217 -1.0000000000000071
v 58 14.999996886499217 -1.0000000000000071
v 59 14.999996886499217 -1.0000000000000071
v 60 14.999996886499217 -1.0000000000000069
v 61 14.999996886499217 -1.0000000000000069
v 62 14.999996886499217 -1.0000000000000069
v 63 14.999996886499217 -1.0000000000000067
v 64 14.999996886499217 -1.0000000000000067
v 65 14.999996886499217 -1.0000000000000064
v 66 14.999996886499217 -1.0000000000000064
v 67 14.999996886499217 -1.0000000000000062
v 68 14.999996886499217 -1.0000000000000062
v 69 14.999996886499217 -1.000000000000006
v 70 14.999996886499217 -1.000000000000006
v 71 14.999996886499217 -1.0000000000000058
v 72 14.999996886499217 -1.0000000000000056
v 73 14.999996886499217 -1.0000000000000056
v 74 14.999996886499217 -1.0000000000000053
v 75 14.999996886499217 -1.0000000000000051
v 76 14.999996886499217 -1.0000000000000051
v 77 14.999996886499217 -1.0000000000000049
v 78 14.999996886499217 -1.0000000000000047
v 79 14.999996886499217 -1.0000000000000044
v 80 14.999996886499217 -1.0000000000000042
v 81 14.999996886499217 -1.0000000000000042
v 82 14.999996886499217 -1.000000000000004
v 83 14.999996886499217 -1.0000000000000038
v 84 14.999996886499217 -1.0000000000000036
v 85 14.999996886499217 -1.0000000000000033
v 86 14.999996886499217 -1.0000000000000031
v 87 14.999996886499217 -1.0000000000000029
v 88 14.999996886499217 -1.0000000000000027
v 89 14.999996886499217 -1.0000000000000024
v 90 14.999996886499217 -1.0000000000000022
v 91 14.999996886499217 -1.000000000000002
v 92 14.999996886499217 -1.0000000000000018
v 93 14.999996886499217 -1.0000000000000016
v 94 14.999996886499217 -1.0000000000000013
v 95 14.999996886499217 -1.0000000000000011
v 96 14.999996886499217 -1.0000000000000009
v 97 14.999996886499217 -1.0000000000000007
v 98 14.999996886499217 -1.0000000000000004
v 99 14.999996886499217 -1.0000000000000002
v 100 14.999996886499217 -1
v 100 0 -0.99999999999999722
v 99 0 -0.99999999999999745
v 98 0 -0.99999999999999767
v 97 0 -0.99999999999999789
v 96 0 -0.99999999999999811
v 95 0 -0.99999999999999845
v 94 0 -0.99999999999999867
v 93 0 -0.99999999999999889
v 92 0 -0.99999999999999911
v 91 0 -0.99999999999999933
v 90 0 -0.99999999999999956
v 89 -2.2204455883596121e-16 -0.99999999999999978
v 88 -1.6653341912697093e-16 -1
v 87 -2.2204455883596121e-16 -1.0000000000000002
v 86 -2.2204455883596121e-16 -1.0000000000000004
v 85 0 -1.0000000000000007
v 84 0 -1.0000000000000009
v 83 0 -1.0000000000000009
v 82 0 -1.0000000000000011
v 81 0 -1.0000000000000013
v 80 0 -1.0000000000000016
v 79 0 -1.0000000000000018
v 78 0 -1.000000000000002
v 77 0 -1.0000000000000022
v 76 0 -1.0000000000000022
v 75 0 -1.0000000000000024
v 74 0 -1.0000000000000027
v 73 0 -1.0000000000000027
v 72 0 -1.0000000000000029
v 71 0 -1.0000000000000031
v 70 0 -1.0000000000000031
v 69 0 -1.0000000000000033
v 68 0 -1.0000000000000036
v 67 0 -1.0000000000000036
v 66 0 -1.0000000000000038
v 65 0 -1.0000000000000038
v 64 0 -1.000000000000004
v 63 0 -1.000000000000004
v 62 0 -1.000000000000004
v 61 0 -1.0000000000000042
v 60 0 -1.0000000000000042
v 59 0 -1.0000000000000042
v 58 0 -1.0000000000000044
v 57 0 -1.0000000000000044
v 56 0 -1.0000000000000044
v 55 0 -1.0000000000000044
v 54 0 -1.0000000000000044
v 53 0 -1.0000000000000047
v 52 0 -1.0000000000000047
v 51 0 -1.0000000000000047
v 50 0 -1.0000000000000047
v 49 0 -1.0000000000000047
v 48 0 -1.0000000000000047
v 47 0 -1.0000000000000047
v 46 0 -1.0000000000000044
v 45 0 -1.0000000000000044
v 44 0 -1.0000000000000044
v 43 0 -1.0000000000000044
v 42 0 -1.0000000000000044
v 41 0 -1.0000000000000042
v 40 0 -1.0000000000000042
v 39 0 -1.0000000000000042
v 38 0 -1.000000000000004
v 37 0 -1.000000000000004
v 36 0 -1.000000000000004
v 35 0 -1.0000000000000038
v 34 0 -1.0000000000000038
v 33 0 -1.0000000000000036
v 32 0 -1.0000000000000036
v 31 0 -1.0000000000000033
v 30 0 -1.0000000000000031
v 29 0 -1.0000000000000031
v 28 0 -1.0000000000000029
v 27 0 -1.0000000000000027
v 26 0 -1.0000000000000027
v 25 0 -1.0000000000000024
v 24 0 -1.0000000000000022
v 23 0 -1.000000000000002
v 22 0 -1.000000000000002
v 21 0 -1.0000000000000018
v 20 0 -1.0000000000000016
v 19 0 -1.0000000000000013
v 18 0 -1.0000000000000011
v 17 0 -1.0000000000000009
v 16 0 -1.0000000000000009
v 15 0 -1.0000000000000007
v 14 -2.2204455883596121e-16 -1.0000000000000004
v 13 -2.2204455883596121e-16 -1.0000000000000002
v 12 -1.6653341912697093e-16 -1
v 11 -2.2204455883596121e-16 -0.99999999999999978
v 10 0 -0.99999999999999956
v 9 0 -0.99999999999999933
v 8 0 -0.99999999999999911
v 7 0 -0.99999999999999889
v 6 0 -0.99999999999999867
v 5 0 -0.99999999999999845
v 4 0 -0.99999999999999811
v 3 0 -0.99999999999999789
v 2 0 -0.99999999999999767
v 1 0 -0.99999999999999745
v 0 0 -0.99999999999999722
v 0 14.999996886499217 -1
v 30.37323943661972 7.2502661007195508 -1
v 36.934805194805207 7.3083231583597028 -1
v 44.075675675675683 7.4066200842534755 -1
v 55.924324324324317 7.4066200842534755 -1
v 62.986197183098582 7.3084914407465842 -1
v 70.577737226277364 7.2915605303100168 -1
v 30.893444042634187 3.7525924833628963 -1
v 33.720741339931486 4.0334302629081442 -1
v 35.204301417729283 11.1364953255516 -1
v 37.239280890072287 3.7317970002222434 -1
v 41.242410017935875 4.5689656585150091 -1
v 42.545674080423773 11.200417407086428 -1
v 46.124147836582267 3.7965208461457172 -1
v 49.5 9.0987914689036202 -1
v 55.208651725729524 3.6852578637105822 -1
v 59.905741788538592 10.376352317560622 -1
v 56.453621894544249 11.198070657466854 -1
v 61.735054177318609 3.5816346998682214 -1
v 65.733496532178123 10.922825286414747 -1
v 69.02424748186867 3.5574117313806966 -1
v 31.724732250150819 1.785112545885277 -1
v 33.534496372973528 2.1881722575189548 -1
v 35.62970593094839 2.212587678843565 -1
v 34.325746928681227 13.128752393771995 -1
v 37.922839288125807 11.443319048495713 -1
v 37.88550440699445 1.7932386102971418 -1
v 40.844367963125215 2.3974396252871584 -1
v 42.012078429846945 13.139069173276166 -1
v 45.066749323687183 12.05325087970987 -1
v 43.991031355795428 2.6478426714187351 -1
v 46.315399694012719 1.8640026729677763 -1
v 49.5 3.3427322764017044 -1
v 49.5 12.070576281909416 -1
v 54.84727021081671 1.8053506793527498 -1
v 58.473826683618739 3.5380882110062712 -1
v 60.715415913549243 12.72453714268214 -1
v 62.957958116847536 11.608927785118352 -1
v 57.944556832030187 12.981520078901891 -1
v 55.944556832030194 12.987520077656477 -1
v 61.101333467061735 1.7443333055887189 -1
v 65.081864533787339 4.0547282259478656 -1
v 66.642222317411182 13.020367826423053 -1
v 68.232600976071481 1.6840012772431223 -1
v 34.063855986540908 0.98890648383436852 -1
v 36.100760368628229 0.99847905549248306 -1
v 37.189456517052847 13.276084210220489 -1
v 41.18934299663092 1.1285231103197195 -1
v 44.774552419291147 13.572235086399381 -1
v 44.255339465781177 1.2723024070064226 -1
v 48.313860748530942 1.8803921243836548 -1
v 50.5 1.7835497692299718 -1
v 49.5 13.577957120457281 -1
v 52.232536065386924 12.298358101138879 -1
v 57.021570432817171 1.8945677161412795 -1
v 59.021570432817171 1.8975677155185795 -1
v 61.133199169692887 13.935995031582861 -1
v 63.758161145169687 13.342599139136054 -1
v 58.242532513371479 14.064772125192404 -1
v 56.242532513371486 14.064772125192397 -1
v 54.146046770126517 13.159231119213631 -1
v 63.350197771617729 2.125395102074084 -1
v 65.518277127999625 2.2561280783688553 -1
v 32.843977222440422 1.5889199962075775 -1
v 36.87041733486766 1.5871254635285681 -1
v 34.803129854123917 1.7064816983823108 -1
v 52.370941559992787 13.696412757007865 -1
v 57.09354467270083 13.523146102047136 -1
v 62.888342732072381 0.97068526266275734 -1
v 64.964946272174103 1.0539102348667844 -1
v 56.679935151654817 12.360702819327713 -1
v 62.139165086819048 1.5485927647667193 -1
v 64.244908612751985 1.6810410036174748 -1
v 14 7.3999984640062806 -1
v 19.016999999999996 7.3029984841402484 -1
v 23.097122302158269 7.3565955953174278 -1
v 84.043661971830986 7.2916604583246345 -1
v 74.988951048951051 7.2511873060833407 -1
v 79.049650349650349 7.3439012977625708 -1
v 28.378755550121127 11.148553248279493 -1
v 74.151111660933296 10.276121934722299 -1
v 71.581472068885461 11.066837788999138 -1
v 29.00718026209476 3.2765989454658699 -1
v 32.386651369360777 11.022781470092985 -1
v 68.522733291833234 11.094414311959882 -1
v 70.974735327345357 3.23676408150587 -1
v 67.879670576970085 13.691812267992114 -1
v 39.45284044409091 1.9102768264936463 -1
v 45.109839629971866 1.9594033831881863 -1
v 42.559451880876914 2.1033258034956872 -1
v 43.219797186479767 1.0180091670959135 -1
v 42.166566396277979 1.2395643474057485 -1
v 32.202488627449931 3.1528397077901276 -1
v 36.778957793909342 2.8416438469861443 -1
v 34.567911057530992 2.8834481583988327 -1
v 35.122399736031696 4.1646334591150929 -1
v 50.931825730191804 13.004376735872009 -1
v 53.091545170672575 12.997404793271084 -1
v 53.410307099581203 14.049578710158743 -1
v 62.774293173286658 3.1232636912799832 -1
v 64.975083087127345 2.9200975912122673 -1
v 15.785714285714286 3.5500559785463977 -1
v 18.064583801177601 4.9644151683748188 -1
v 20.787569767441859 3.5650044516163937 -1
v 19.790536236830103 10.318617667374198 -1
v 23.557356482833537 3.9514919766532319 -1
v 25.462915797133284 8.9408694806912408 -1
v 21.413336948780735 11.17358420368503 -1
v 82.236556741082424 3.5732512861149655 -1
v 74.313264107815542 3.7485793566889436 -1
v 78.247164105697181 10.494161927457965 -1
v 78.360396983335818 3.8771069545034758 -1
v 80.629791508986131 11.159737989132855 -1
v 27.39679639719326 13.162001771514335 -1
v 26.145179117912814 11.70602077253827 -1
v 75.368661327784679 12.724954389594288 -1
v 76.618471442202136 11.275469101789527 -1
v 73.372303474716148 12.795001204978748 -1
v 71.41564012308919 12.777547501667323 -1
v 29.794619867220312 1.5216855881196263 -1
v 26.863214714265691 3.3549809107853608 -1
v 32.540720467301114 12.839253810281773 -1
v 30.600624714528365 12.804216449109791 -1
v 69.551826539197364 13.100780454710121 -1
v 70.195834787322411 1.5010493846069173 -1
v 40.289602568989984 1.0053411025244772 -1
v 45.791498084747595 1.050918894798065 -1
v 45.621954624138674 2.8684798375080622 -1
v 43.480925985550279 2.0116206434653017 -1
v 31.686952245354053 2.7305709819469901 -1
v 32.986776414749379 3.5563123716219947 -1
v 32.063066785946567 5.6018053457304431 -1
v 36.127354287557004 4.0892553205499134 -1
v 36.371311753888641 5.8139055508328603 -1
v 36.543107152089334 4.7657705373836512 -1
v 54.373542097398769 14.142132880348139 -1
v 61.818413243592993 2.6623962342893446 -1
v 63.914080079613832 3.4318420775616825 -1
v 64.626309013847774 6.2725916669532946 -1
v 63.63479350708004 4.689586306994924 -1
v 16.71577380952381 1.5968684421866757 -1
v 19.33361783003792 2.3327194799013427 -1
v 21.70291138013226 1.6326536831906298 -1
v 18.590695744492258 12.759331482639537 -1
v 24.580797942795478 1.8483352354631788 -1
v 23.9472854795941 11.994902532930137 -1
v 20.391337587387085 13.217624021608801 -1
v 81.296296846964808 1.6222073249662232 -1
v 84.499456503345797 4.1487450089810256 -1
v 80.448001224187379 3.8960004155071868 -1
v 72.538990047961448 2.1297371178891757 -1
v 74.538990047961448 2.18373710668057 -1
v 79.429067674467149 12.858079285010909 -1
v 76.59347009591194 2.1989663168031739 -1
v 81.63173322240138 13.226718655116889 -1
v 25.261046108217467 13.469390417293948 -1
v 76.02382641126367 14.041915320102513 -1
v 76.651716070522014 13.338713301848491 -1
v 74.025936531165527 14.046259896869463 -1
v 72.769184767246017 13.50147815659941 -1
v 74.666797355935699 13.324216518708516 -1
v 72.031596306593343 14.039492469109684 -1
v 70.772652503715094 13.485388345494515 -1
v 30.389437034395453 2.3391181580683043 -1
v 27.730483651841293 1.5778951076798073 -1
v 28.318352017914087 2.5073586116102167 -1
v 31.961506774028649 14.017701698921542 -1
v 31.288229705719367 13.400959019851781 -1
v 33.154432458710154 13.516300923004177 -1
v 29.977626364532973 14.020964134047661 -1
v 69.588328684396714 2.3102762062821616 -1
v 31.258387196472793 4.9242962595997142 -1
v 17.419925389510642 2.4985201188585666 -1
v 15.000965547509328 2.6983948814770868 -1
v 20.023977905782992 0.95202189660890446 -1
v 22.515072545141074 2.5230253907590057 -1
v 20.221251028033674 2.7013400151616684 -1
v 17.93074212574788 14.138272174114569 -1
v 23.153684185367005 13.669681401109601 -1
v 22.439413302375524 12.887827578398005 -1
v 24.562571859431216 12.787670300537437 -1
v 82.851306651754157 2.6327937339269973 -1
v 78.66650562458743 2.3330829097634251 -1
v 80.705546409840721 2.5328910821827577 -1
v 71.942497173850242 0.90712127902457518 -1
v 71.612039458927924 2.4716786306085332 -1
v 73.25048857437217 1.5381103987046261 -1
v 73.942497173850242 0.90712127902457174 -1
v 80.081254564603356 14.162268379560778 -1
v 78.614371655124245 13.228416151507481 -1
v 75.95413992315234 0.91359972498077757 -1
v 77.324520422366845 1.6911334516067407 -1
v 75.324520422366845 1.6581334584564429 -1
v 26.612210986417015 12.641394119788842 -1
v 75.542055155686228 11.500586366953771 -1
v 71.905731267980158 12.284835692727073 -1
v 69.743313292092495 12.026770696774511 -1
v 31.006148158378192 1.0515024126313499 -1
v 29.581165010636781 4.1325421409271836 -1
v 25.890842393575284 2.4771325754301756 -1
v 28.678074042461159 1.2457437564326046 -1
v 31.619241434938647 12.20045232829786 -1
v 33.871504674538542 11.962542786109385 -1
v 70.411305335761782 4.1279222349893452 -1
v 69.046240764953865 2.662016574147037 -1
v 68.74495737087797 1.1853624686218895 -1
v 16.742854334338336 2.524282543696871 -1
v 18.681135459910088 1.6696864560092013 -1
v 16.054070863603101 1.5047615930071498 -1
v 21.778333732689283 2.5459604547918344 -1
v 22.918975985306396 1.1540237751566276 -1
v 23.77708437252609 1.4762392796639139 -1
v 20.915298211147654 1.1694249346221441 -1
v 21.932165027327404 14.135832038543713 -1
v 21.267066832397671 13.465920145344491 -1
v 23.959316167003465 14.081680910107622 -1
v 82.207001910141841 2.6328511314130032 -1
v 83.417041647890599 1.8757787741245453 -1
v 77.976095163530374 0.95209496590710385 -1
v 79.382712876884895 1.765447819400328 -1
v 80.035973832915388 1.0719736104093005 -1
v 71.038716666767854 1.1043956042240097 -1
v 74.107361335445532 2.6389568831262435 -1
v 77.469782613965904 2.7470286907509647 -1
v 76.86913873863864 4.6686897253091644 -1
v 77.416021201703003 4.0068691253622264 -1
v 27.450421114547446 10.934440756940605 -1
v 27.507673692415832 12.155195684920811 -1
v 26.42177475769957 13.766592266546734 -1
v 76.547296752778962 12.229526745504165 -1
v 77.617619953130159 12.817838389009333 -1
v 69.27574076649617 9.4374471825557418 -1
v 26.921074051115188 1.186657189795425 -1
v 26.698329887986805 2.4661225732447067 -1
v 25.871075618760202 1.3021552062656065 -1
v 33.149426170032221 11.463658610996257 -1
v 34.538849951568601 8.6785346692183243 -1
v 33.596409745139319 10.043276124503921 -1
v 17.512580431932527 4.0117205013277504 -1
v 23.421289538301785 2.9359046915262033 -1
v 21.230764498409847 5.8686817669960547 -1
v 22.433439780850357 4.5674570143848188 -1
v 22.450088529791227 11.330435466984785 -1
v 76.285336434729942 3.1537380870453209 -1
v 75.664567707076657 3.627940872817053 -1
v 78.059927940988743 5.6683081823287784 -1
v 27.237993988681708 8.8591353954587433 -1
v 28.977637332747534 9.1599117507850725 -1
v 78.048918061501055 14.097915135242456 -1
v 69.199004487525741 10.578787137743822 -1
v 24.793982748787045 2.8856540932518602 -1
v 34.929477541304713 9.8590330623971845 -1
v 34.118720495930567 10.877289225312996 -1
v 22.373747974826738 6.3960406450145282 -1
v 21.703525021983186 4.2363105423520047 -1
v 79.398513967197331 6.1321569887424969 -1
v 26.996823224170335 10.207653848703959 -1
v 25.602895814835861 10.467797252610424 -1
v 28.157895698907556 8.9180570167232531 -1
v 70.474895988550685 11.001561231423771 -1
v 24.55231247936743 4.8910108866292985 -1
v 25.729902500623105 3.9482836498803944 -1
v 25.632791441423638 6.4136204245905093 -1
v 25.986534071102884 4.9189133361735049 -1
v 22.725478782135273 5.2025761526050545 -1
v 23.643396875885951 5.0230529302495608 -1
v 23.61519742727269 6.0196774915588822 -1
v 20.351020524855855 5.7137619151577139 -1
v 28.914770924083367 6.5064574008445337 -1
v 70.462319565199991 11.947176440414781 -1
v 25.000304750523 3.6385677695721079 -1
v 27.328143728821541 4.8887538905447707 -1
v 24.513308728161643 6.4435558330442824 -1
v 19.440752461684045 5.4800967439080823 -1
v 20.963478738855404 4.3458862904237892 -1
v 28.241445114806051 7.8246453357234662 -1
v 29.416193365141179 7.2192723957542944 -1
v 26.968402763155321 4.2549175081472557 -1
v 30.082252773165433 5.7246491022733856 -1
v 29.605130542395937 5.1632892765505281 -1
v 30.655281172998738 6.1159885956292754 -1
v 0 7.9999983394662486 -1
v 3.9028571428571395 7.4144197907298137 -1
v 6.9924822695035456 7.447650936384715 -1
v 10.189403973509933 7.4173434960484617 -1
v 90.049999999999997 7.3372712042991015 -1
v 96.193181818181813 7.4228085793791472 -1
v 93.119459459459463 7.4596146678481547 -1
v 100 7.9999983394662486 -1
v 36.112451612852624 12.359853484458222 -1
v 39.516305616174705 12.510780454791853 -1
v 38.908118659931191 13.81670048228424 -1
v 38.336673909363853 13.012298978321022 -1
v 37.8656746091836 14.085647857920478 -1
v 38.900472196775631 11.732818633851222 -1
v 40.418759898257662 13.371758961156088 -1
v 40.307911099815684 8.1329877206730785 -1
v 40.913061284691153 10.416072426879063 -1
v 39.328535535666582 9.9156486062861493 -1
v 39.983690713578838 11.346470951481288 -1
v 41.126765123905983 11.751348041738041 -1
v 43.568563656431046 12.855325531204274 -1
v 42.793467991078451 13.933770470884211 -1
v 43.758217312427227 14.051181514148249 -1
v 46.865420537227358 12.898696898361099 -1
v 46.598588267662201 14.004114416589271 -1
v 45.844291531687531 13.33625940743708 -1
v 62.152496605984858 12.596101252163322 -1
v 64.821331487818583 12.41180036131783 -1
v 65.001432715113637 13.753862575382545 -1
v 65.903300907920837 13.443069037143413 -1
v 67.1953425917863 2.5575554997302272 -1
v 11.453846153846154 11.12689068093311 -1
v 13.66077922077922 10.672377284923185 -1
v 16.51368389346861 11.056901506422927 -1
v 87.154965118365581 10.331789672213361 -1
v 85.568330263845453 11.172272900878697 -1
v 51.379025339969353 14.026074082687071 -1
v 50.028875492262983 12.824266701183348 -1
v 50.890008124713987 11.503865385074718 -1
v 82.494346180248286 11.020755642979086 -1
v 29.346472562489112 12.155234780971321 -1
v 29.252055600131367 13.524751068683896 -1
v 28.184757420478846 13.596050402313287 -1
v 68.891586972722379 13.681406013253312 -1
v 67.463626254569249 11.76785472099316 -1
v 68.508890768735711 12.440704857352566 -1
v 67.194499040658172 12.562423896989349 -1
v 64.879135845378528 5.1867559417888502 -1
v 67.405284458872458 6.4742539845731093 -1
v 67.13229223520301 8.4859793478285983 -1
v 66.112855015658155 5.3999759985390412 -1
v 66.592455006939772 4.1604734452924532 -1
v 68.269677063430279 9.2689949510658192 -1
v 67.769134766781789 7.8428959553469166 -1
v 65.985609680373955 4.4144922535679232 -1
v 66.464282572987457 6.9066086616819238 -1
v 65.764097325793855 7.640179531753569 -1
v 65.486376113752286 6.2711429230002533 -1
v 66.508096580899164 9.6893081058057238 -1
v 64.443372405608145 7.6665965438915622 -1
v 66.472675392579234 8.7177637444452287 -1
v 67.561045505773919 9.81992824785676 -1
v 67.412714306275774 10.729555716644221 -1
v 63.171336469670273 5.8993692282692223 -1
v 17.397725108372125 13.235918799348509 -1
v 19.924328581938763 12.195595426329845 -1
v 86.709286943814831 4.5385812197078641 -1
v 79.794215274082376 11.676058401709323 -1
v 73.409389160557097 11.159644033740829 -1
v 32.182859772106056 4.5722136017328188 -1
v 17.965024593903259 1.071341055894971 -1
v 14.620137755509861 1.8056984688999074 -1
v 12.521031184152971 5.545575325634764 -1
v 13.765235134983078 3.7777899738911036 -1
v 13.84439779997725 5.6332566119016469 -1
v 12.572355336368677 3.2855563676362305 -1
v 14.147226644445146 4.3001458199239382 -1
v 13.81718190537747 1.7966211340264544 -1
v 12.884738511096602 4.0176945484240481 -1
v 11.540277757554705 5.7894073271023387 -1
v 19.141814570057829 3.6017641677035779 -1
v 19.521095281512441 4.2796678419258756 -1
v 83.926121093254494 5.1242812032271354 -1
v 82.06462087152741 1.1279215451836442 -1
v 81.983987402404168 4.9435422614006921 -1
v 73.284916600169382 4.3034024968466245 -1
v 78.211441389435521 11.675787967223298 -1
v 77.530221660182107 11.730783449026186 -1
v 76.407889005146359 9.4218414009261426 -1
v 77.416454635303808 10.248127785587121 -1
v 76.688712199038065 7.636334053749378 -1
v 77.297679409796615 9.0791275986830353 -1
v 78.571380534290597 8.8085757703463052 -1
v 77.723053310850673 8.5577825265991088 -1
v 77.087122062564873 6.4562796071392823 -1
v 78.013782758990033 6.7460034315368986 -1
v 78.274971111254061 2.8273590265176991 -1
v 79.81966741656214 4.7215305204246576 -1
v 30.478766295527102 3.2062954671012238 -1
v 72.772686059691409 6.218873786214866 -1
v 70.136094279839043 5.4429249715584511 -1
v 83.617014373379703 2.9782427245393523 -1
v 80.2456749610256 2.8307951683828025 -1
v 79.526248442300087 2.8306273295224735 -1
v 18.461420899423565 2.8493043615469951 -1
v 16.070421819443911 4.8246228299918306 -1
v 21.41825506734374 12.293909636815933 -1
v 23.099747593449646 9.106915031435447 -1
v 23.580951236929906 11.035970220379667 -1
v 23.616334564243473 9.7408381318561403 -1
v 24.636571361874722 10.465209658526136 -1
v 24.442952386839103 9.6064758253396345 -1
v 24.739111934656716 8.1120172813069988 -1
v 35.741672016392933 8.3862473794349057 -1
v 35.51651535268001 7.2532059644059981 -1
v 37.02012605532677 9.2777528799038702 -1
v 33.434046660742723 7.0638605759478015 -1
v 34.980955537259064 5.8430688937750199 -1
v 36.467783578505625 6.7124180490803136 -1
v 36.030871656454352 9.2819990933528604 -1
v 34.285989816535448 7.5454028042144019 -1
v 32.657624090181692 9.1395880474192079 -1
v 33.336652445569193 8.0674074849451447 -1
v 33.553177412945431 9.0631589217537254 -1
v 78.417526298952524 4.9375232671015192 -1
v 25.470820002584606 11.570187699039113 -1
v 26.298745061249726 8.9804775844288933 -1
v 26.975966433603009 6.8558134505101878 -1
v 28.335970379628691 5.6821166142467376 -1
v 27.500484510468233 7.4963678318873388 -1
v 25.881407980478052 7.3329948825550089 -1
v 27.611630999595157 5.6013350287579442 -1
v 28.088314842737677 3.6511954380028646 -1
v 17.198367822613957 7.9072732003539121 -1
v 18.293654670204518 6.0527035081116258 -1
v 18.273861640645855 7.2317236147084962 -1
v 17.682578547051385 9.1001022500923607 -1
v 18.846703718049188 9.49729569838704 -1
v 16.504992433887402 9.7590581489664725 -1
v 18.565109406699392 8.7712903387039471 -1
v 19.918603178946096 7.5621429109850284 -1
v 17.586964275895614 10.628122059209293 -1
v 14.760781859790299 12.366719065690194 -1
v 15.354224928792455 9.533552167087894 -1
v 20.933329866532869 7.5910317575603852 -1
v 18.023071482188918 11.440930999106065 -1
v 16.303792160374563 12.790358880876969 -1
v 15.757308489990477 11.240078434257995 -1
v 15.252257629390858 10.778012375182399 -1
v 13.571626548472775 12.550141865159224 -1
v 16.205574370780099 9.1297629496700061 -1
v 19.06948644957297 10.281820377988891 -1
v 19.869872275622797 8.7711002755517953 -1
v 18.559299990826869 11.748890521984402 -1
v 17.047845391939475 12.647212526311831 -1
v 0 3.9999991697331243 -1
v 2.5103658536585369 4.0173530592126463 -1
v 4.5513094292522407 4.007207977193282 -1
v 6.5210777992285909 3.9469470274922234 -1
v 3.6116459986877674 10.606292799579675 -1
v 8.7893627984528404 3.5789717054363122 -1
v 6.6711648204480545 10.674470999374577 -1
v 8.2959136184189397 11.318476599065708 -1
v 89.521145447878126 4.0095801188175102 -1
v 92.585371930629776 11.065474312033473 -1
v 90.252932050884269 10.525334852846143 -1
v 95.415578550871842 3.9366146419495172 -1
v 97.637639686006096 11.24633783311457 -1
v 93.489299588077117 4.1449487963773315 -1
v 95.584523150547369 11.136453958094137 -1
v 91.259998546934028 3.5786647129665132 -1
v 97.489634146341459 4.0173530592126463 -1
v 88.562180801095039 11.869583963822439 -1
v 37.020575185846077 12.359915270942126 -1
v 41.089858688450072 13.923995625577701 -1
v 41.769704256499466 10.740430592813613 -1
v 42.377805095658594 8.759344851679435 -1
v 41.898987832527069 12.169776763391859 -1
v 42.981144114852285 12.090982775714251 -1
v 40.352697628439195 12.50331828463435 -1
v 44.441938818250208 12.813000572353367 -1
v 48.28687260376136 12.89526668644611 -1
v 60.974751191162134 11.550775794005379 -1
v 61.405118198884075 9.9676991082276629 -1
v 61.932315688844234 11.437101925458945 -1
v 60.850503270599589 10.54000463261672 -1
v 62.939702346373849 12.517777824187279 -1
v 62.985001431623161 13.828080458431289 -1
v 62.12038843932222 13.988767405612435 -1
v 61.600380385918868 13.052215749904098 -1
v 63.937751797895551 12.417948173995564 -1
v 68.063727950096336 2.5645242832977164 -1
v 67.069328794978517 1.2883626957414638 -1
v 66.110328858375482 1.3283035598711819 -1
v 11.660479375696767 12.602083275188011 -1
v 10.384797092671109 13.23963113401102 -1
v 9.7880081626329698 12.113730280584708 -1
v 11.292573271758483 12.214112851009682 -1
v 10.752703196609392 13.664551043683076 -1
v 10.441356865516694 12.158577033596259 -1
v 88.404240479250291 12.831815257123099 -1
v 86.627348762970513 13.262799464210975 -1
v 85.001428848967862 12.249168166062121 -1
v 87.045849544020029 12.14892217082684 -1
v 85.638427719574963 12.24884287901747 -1
v 86.469151330037533 12.201974868644095 -1
v 50.377215009555051 14.068443526090718 -1
v 49.704725574924801 10.584683875406519 -1
v 53.091421972955303 8.9893558420105801 -1
v 83.57258490771224 13.136867802144105 -1
v 80.79110654614702 8.6550946887770284 -1
v 28.488016635727821 12.155470039513455 -1
v 30.534676777571004 9.4592068007158456 -1
v 29.562117680880363 10.832761332553467 -1
v 29.507131519177815 9.7415631109627725 -1
v 30.454874363852767 8.3541727463545108 -1
v 31.426014256097769 7.0225587826340634 -1
v 32.748147167494373 6.3330787923014054 -1
v 33.05446854154674 5.1887864898063762 -1
v 34.012581988051302 5.4484153300688085 -1
v 31.958822724700774 8.0621573325000782 -1
v 66.598291155874563 3.0731240368254826 -1
v 68.321659152448959 4.7340300718948365 -1
v 64.153842413741657 9.2420823557676393 -1
v 64.037202533976711 6.6100649730731869 -1
v 60.976291525606072 5.3962967422706782 -1
v 62.629995909126144 4.6593046000834182 -1
v 62.020316315915977 5.3306193435689249 -1
v 61.910571231558329 6.4150068274608927 -1
v 61.864554643972916 8.3021800294688379 -1
v 62.184912908315276 7.5027754374909836 -1
v 63.005850047493688 8.7189369716644745 -1
v 63.665960494064294 10.517174885294068 -1
v 19.490130981701679 13.583562449594874 -1
v 19.612118272296154 11.518860692461732 -1
v 21.289564437102815 9.6077436869417205 -1
v 85.054792449882868 3.1275467528107943 -1
v 85.536182468947416 2.135326677400073 -1
v 79.133536026352047 11.676582549640965 -1
v 80.671614589447657 12.161831933133309 -1
v 80.713334698574045 13.474005413176183 -1
v 74.361608966532089 11.499987937316712 -1
v 73.781681973331757 12.298026034326904 -1
v 72.592734381163808 11.320549677920202 -1
v 71.369717757689003 9.3137282714118417 -1
v 10.533512089159483 3.9518127600115847 -1
v 10.770255011295795 5.2804950411422862 -1
v 12.610050838080195 1.8269916213996362 -1
v 13.419113526508351 1.3806815590779196 -1
v 11.724107467844563 3.5736612204698934 -1
v 11.700766877140529 1.9217480392646664 -1
v 10.330453338868427 2.4790370013601302 -1
v 10.796420481158661 2.7708892147809978 -1
v 81.642473255897627 3.682967519886641 -1
v 83.080479880010031 5.3884173283952697 -1
v 72.559002608041681 3.1010521466024286 -1
v 72.199510411703017 4.0321130107920355 -1
v 73.243400275501401 5.4804077035095231 -1
v 71.740775941254398 4.7766071739767133 -1
v 74.228318950933399 5.7184861026315748 -1
v 75.437794603775671 6.4873420394505183 -1
v 73.984728816754952 7.0432908649057326 -1
v 71.554715248560129 6.1098285433120729 -1
v 74.608229388754793 5.0510360892839667 -1
v 75.695343591207816 5.1602923388782385 -1
v 74.815523840930709 9.2913836760639583 -1
v 75.083923719307279 3.8703102784745886 -1
v 76.408713563683349 5.1244152760983743 -1
v 76.374670285708589 6.4476315334874847 -1
v 74.834104993166235 10.247008444639668 -1
v 75.011939886519983 8.3789483482155234 -1
v 75.829193971298082 9.8237159124500089 -1
v 76.098005543621639 8.0615555370327403 -1
v 79.542544425534885 10.335069644168975 -1
v 79.652210952286438 9.1249561548593778 -1
v 78.734088406615641 8.055220717329906 -1
v 80.032926830731512 8.5678180270785163 -1
v 79.318303108023343 5.0689343372020055 -1
v 69.868692293897155 4.4018097890720176 -1
v 16.999311510987251 3.7492214405536379 -1
v 14.966305147165741 5.4208451803626927 -1
v 14.003407187469083 6.4204872481422139 -1
v 12.460476562584013 8.6540696202106808 -1
v 11.091788457790562 10.227376156159313 -1
v 14.808915771663633 4.6457590874797736 -1
v 9.9186524091538733 10.136935208507236 -1
v 11.852078732310542 7.8538355182258162 -1
v 10.222031441144354 10.731760023898612 -1
v 11.806160216987601 8.8134655585027968 -1
v 10.94753091726187 7.810423513285417 -1
v 22.374501133053755 10.424438547700284 -1
v 23.597796937665123 7.7315077095291036 -1
v 14.017631662203518 13.958408976489727 -1
v 15.966924556998739 6.9453983683860878 -1
v 16.521675167231773 7.5161201272889535 -1
v 17.002703430371415 6.0404876127105807 -1
v 21.739596543574297 6.209154352632738 -1
v 15.185723662288797 13.624533277481188 -1
v 15.960657355437556 14.074236179840202 -1
v 12.985619680644728 14.012331143844952 -1
v 12.381286271685841 13.207646997534612 -1
v 11.631145413371604 13.564299399162632 -1
v 13.305355579235657 11.93767804867462 -1
v 0 1.9999995848665622 -1
v 1.5012195121951222 2.0172250233698934 -1
v 3.6113582256340497 1.7996182119541362 -1
v 4.0465244895963588 2.9778897670962321 -1
v 2.1076671265280238 2.8778752158670913 -1
v 3.4627304863274406 2.924399085955665 -1
v 2.6783257175660533 2.877769754509778 -1
v 5.6180244334013949 1.7933792665862436 -1
v 6.0643504840158799 2.8778638897723039 -1
v 4.6621122484537754 2.9116780000790938 -1
v 5.4736859640250817 2.8778664657828119 -1
v 7.617288927441388 1.7883081461594477 -1
v 8.0477265553527388 2.9607337171231718 -1
v 6.6860593923160927 2.8292664324637706 -1
v 7.4676244558415821 2.9075009988080112 -1
v 2.4705814389157359 12.979352498223946 -1
v 9.7330987444491264 1.5674512852087037 -1
v 10.449588884778619 1.3938208357030322 -1
v 8.7785480211750357 2.6331198264195912 -1
v 5.4882844077829205 13.00387852560941 -1
v 7.2977292714515762 13.377922830311562 -1
v 6.5771869041569957 12.838975214358184 -1
v 8.6073776374562208 12.302052285286246 -1
v 7.3724705298541977 12.363091798289744 -1
v 7.9939691610973558 10.082728812263301 -1
v 87.763278126727911 2.6143796212761412 -1
v 88.421514313922614 1.8316385108038413 -1
v 93.636699002561969 13.244579753000435 -1
v 92.012722626351348 12.077002457005687 -1
v 94.226016111959609 12.175750253779013 -1
v 92.649235934705871 12.140686473761576 -1
v 94.388089694388924 13.409816411400874 -1
v 91.470477423754829 12.923001487793444 -1
v 93.74891498817729 2.5094033161907352 -1
v 94.363822886055502 1.7564520404651913 -1
v 95.931067647031753 2.9188430119165805 -1
v 94.48602700692804 2.8256917993761159 -1
v 95.023705945400522 4.9177594417971591 -1
v 95.318175151524301 2.8575140192553761 -1
v 98.682251169053472 13.339692874943703 -1
v 97.166484903899772 12.327013632880018 -1
v 97.744457479750437 12.327156201695972 -1
v 92.404165685421219 1.87887101452651 -1
v 92.81430981142897 1.5525157566164325 -1
v 91.980802665601487 2.9417258853970081 -1
v 92.569587842836611 2.9986836608923109 -1
v 96.652547429190619 13.281199191680516 -1
v 95.48337463588723 12.835852182186237 -1
v 96.512078965385541 12.190131867736312 -1
v 95.722321875337855 12.24140973634146 -1
v 93.930822787727081 10.030487194900401 -1
v 90.277726461757268 1.5813734290820205 -1
v 90.944067889539994 1.5777899998966007 -1
v 89.808400043796965 2.5800226372650394 -1
v 89.613417525858836 1.4360058408372369 -1
v 96.388641774365951 1.7996182119541346 -1
v 97.997443035709637 2.8781744413952581 -1
v 96.540664898164721 2.9240045874556682 -1
v 97.383571453405281 2.8781883101846093 -1
v 90.152595019181362 11.794634429354245 -1
v 48.455927119716883 13.959319013145537 -1
v 9.0813109842262634 13.804866709154533 -1
v 89.116389859547638 14.220306337479201 -1
v 89.124416293724849 11.501627051828716 -1
v 85.940131625329471 13.869040950963196 -1
v 84.568065951621804 13.148373219692573 -1
v 85.674579592497025 9.6092202202291936 -1
v 87.38822941685352 11.601954131490835 -1
v 88.088675888760932 13.482913096879624 -1
v 47.755124779338942 11.043019593679226 -1
v 52.289512187322963 10.512628358072181 -1
v 53.680412684214119 11.523873896042709 -1
v 82.600056586904813 13.167403352627259 -1
v 31.506286586546235 9.5031128103667282 -1
v 30.506097871572294 10.900819896774163 -1
v 31.280665834045269 11.281395464142744 -1
v 30.191011273654475 12.122910143053582 -1
v 32.128636085070646 10.255698561164641 -1
v 69.114505536922081 4.6406407204966911 -1
v 69.419712924133208 6.0367845107301754 -1
v 69.47677199130041 7.8329215646580455 -1
v 68.343859510176841 6.1007080839850119 -1
v 69.773574523989979 7.1522825531779839 -1
v 68.446021560914616 7.4470057143413868 -1
v 67.307662908384188 5.3828110888847611 -1
v 63.885305880984504 8.1499404639549429 -1
v 62.556835811693254 10.315258599160865 -1
v 61.866461816998225 9.2854772670924248 -1
v 64.639550835982817 10.533176208826012 -1
v 20.848923937750083 10.929981932415187 -1
v 21.505829719687799 8.1456958159664179 -1
v 22.447678936717999 7.2681858275730944 -1
v 20.722050803364763 9.4353313097588938 -1
v 84.372962215637003 3.0537742262401646 -1
v 84.009853281023467 1.5835059090676809 -1
v 84.872122735167167 0.74757828886523026 -1
v 85.763500156272954 3.3365261949792631 -1
v 72.369294437417153 8.6224426333855302 -1
v 11.641841838479078 4.6967643065751945 -1
v 71.097252354039739 6.7411303569678171 -1
v 78.644094360635904 9.9404671901929404 -1
v 12.873149583623814 9.5203775589583923 -1
v 12.869500353064844 6.1836537771212221 -1
v 12.930259526334005 7.1555253252977575 -1
v 11.832410501450678 6.9670799878206209 -1
v 10.879680233101427 8.8652415167886893 -1
v 9.6767595282030303 9.1779195542380201 -1
v 9.0863507526569318 8.931122884254723 -1
v 8.9429060611832849 7.2835187860094077 -1
v 9.4775261892960767 7.512815781341283 -1
v 16.458337711811865 5.4241153865190235 -1
v 15.110429965097127 6.8452814983808024 -1
v 14.653487280374996 8.6309445111417418 -1
v 15.432643299615759 8.4173831312385072 -1
v 13.54895547087607 9.6705039783737199 -1
v 12.715584111606054 11.266386065991403 -1
v 14.142708191958988 8.2097418025658051 -1
v 0.69840601533553925 2.092009328480624 -1
v 1.1384271166054909 0.73530568149817965 -1
v 2.212117692605498 0.59545574457975758 -1
v 4.9174922097295264 1.1927229109890953 -1
v 0 5.9999987545996873 -1
v 2.3034698398965134 1.6339431783209439 -1
v 5.1601975553784243 5.0913021187088727 -1
v 6.9193020345430298 1.1807147261370086 -1
v 8.9221601774208992 1.1827171704242649 -1
v 1.5438054267973871 12.894413923274975 -1
v 4.309586938370825 11.735403995268289 -1
v 4.7803879461733709 14.419813971407928 -1
v 5.8621824879201947 14.263578299421743 -1
v 6.5150315320661889 11.882723746788583 -1
v 8.0295354893785085 13.920317536122672 -1
v 87.011910876197632 1.0296434036530127 -1
v 87.112025222727283 3.3713264569694648 -1
v 86.597066295035859 1.7039562041577849 -1
v 86.151456668306508 2.0909288007293103 -1
v 88.551053559960991 2.9365678862797311 -1
v 89.105415411454089 4.9906837637159063 -1
v 92.930100397115055 13.834180792746439 -1
v 92.190430909575952 14.359466949894976 -1
v 91.222148752954936 11.688104911335422 -1
v 90.73708705768567 9.5938329084059948 -1
v 95.066212648087358 1.1579436330555215 -1
v 96.410456978119555 6.2474792549474083 -1
v 94.849850094973263 6.0924013671372617 -1
v 95.950597305356041 8.8276623384690645 -1
v 96.599530162182631 10.595869477403296 -1
v 95.05210310099109 8.9578547442580589 -1
v 95.6936142247921 7.5891366948129093 -1
v 93.809867897574449 6.2413494419719218 -1
v 94.024170383366794 5.5725003488191396 -1
v 93.984779806922745 3.8146840358298437 -1
v 98.002534917794335 13.988442861292826 -1
v 96.153443826096662 14.295295523175621 -1
v 95.200714146947632 13.401875567020554 -1
v 94.487659677362288 11.526769892743886 -1
v 91.292141358378615 5.4692907223189486 -1
v 89.368760283114284 2.8917875441261183 -1
v 88.837706563529366 1.4122283747730526 -1
v 97.060475084124434 1.1460317713720125 -1
v 100 3.9999991697331243 -1
v 89.694669327935401 13.362844675529084 -1
v 91.066173943564834 13.403769654413111 -1
v 90.392407249389265 13.408044394349702 -1
v 83.530934019540027 12.053569033127852 -1
v 48.597590729630916 10.020174640119112 -1
v 46.140647613482336 8.90886761497371 -1
v 47.212625703987904 9.7637992592306784 -1
v 48.809941962306304 11.237450741839295 -1
v 47.652225113585914 12.109566510699633 -1
v 46.418009252631869 11.657844233898498 -1
v 45.817167650702309 12.427345705081638 -1
v 45.569867823578583 10.468216085529479 -1
v 44.058071354484611 10.710274607820429 -1
v 51.847996187918007 11.351359158871075 -1
v 50.972926879142371 10.173141809073366 -1
v 51.812740460820599 9.2239792410917776 -1
v 50.657559367114665 9.0586472770433133 -1
v 49.979665594803599 6.2207618726526617 -1
v 50.031255090910328 7.708346424858278 -1
v 51.9411679615597 7.2540874218731952 -1
v 51.307144674347541 8.145628059863137 -1
v 52.327295407090162 8.2373953356953358 -1
v 53.928108643919678 7.1917254783428506 -1
v 53.318050003721318 7.986292478254768 -1
v 55.180616889806586 9.2397394562461663 -1
v 54.12607282616505 8.7958209934080074 -1
v 54.35551330897205 10.306719080152231 -1
v 54.812543040695978 12.240070427398811 -1
v 55.657126125210567 11.728455726651019 -1
v 81.616397772814068 12.223124421459085 -1
v 82.026653441223871 11.600930443634374 -1
v 81.062599988735897 10.003743282119512 -1
v 70.413872064487549 9.482707921789773 -1
v 84.6184336884495 1.4627692220569188 -1
v 73.193333198617054 9.9490137515734904 -1
v 72.41335612778218 10.02872986915305 -1
v 71.498909889464642 8.4230162429305704 -1
v 72.854512033422495 7.690104753511215 -1
v 72.032987269386524 7.4801861403038892 -1
v 73.320687072466413 8.9840508847231852 -1
v 9.8968938292141786 5.5695138367542825 -1
v 8.5964360779185114 6.0587511636337092 -1
v 9.6320061684651943 4.2258994362657525 -1
v 8.6673230450631245 4.8496812814030701 -1
v 7.8357858559705384 9.106236962077773 -1
v 7.0615361022563663 8.8114395197332822 -1
v 12.246531348621653 10.995408120202299 -1
v 0.80726060509995878 3.9508938227352872 -1
v 3.9660951674647182 5.9858864039877888 -1
v 2.4531095574246091 9.2379819333801994 -1
v 1.8909836085914007 7.7941190173658237 -1
v 0 11.499997612982733 -1
v 2.56972909740752 11.809389487873768 -1
v 2.0909831178452793 8.7771056540108816 -1
v 1.6680129884065105 13.620153945248919 -1
v 3.2005930260334421 13.570350877986685 -1
v 3.4133788463639001 12.27753315311805 -1
v 5.254217313528418 11.756565288875784 -1
v 4.0864873845020133 13.259527544609499 -1
v 86.47367420325989 3.36017922540921 -1
v 88.412981276979238 6.0750337099633605 -1
v 88.050102361147992 3.9820369434151988 -1
v 91.329257445330796 9.139135976050305 -1
v 91.725020658698099 10.548247102095715 -1
v 91.039328979197563 6.9812059899137635 -1
v 90.839029858513541 7.7013055919089606 -1
v 92.320887120066132 9.2742362766794582 -1
v 93.390604083447485 10.346713740892373 -1
v 93.24467833028767 11.154565916715384 -1
v 96.956780849386249 5.3923922778516697 -1
v 98.625529480555912 8.4244384268442545 -1
v 99.080743772137254 9.8822718338433493 -1
v 97.51724487987822 8.6534414442642991 -1
v 95.959987334532585 10.643490890007714 -1
v 94.371814166739398 9.2185851581797102 -1
v 94.88694991096277 7.6801079001431072 -1
v 92.521272698649724 4.8257376539043966 -1
v 92.994282898664054 4.5095092837142081 -1
v 93.286635875633095 6.5768274038923247 -1
v 92.133082045933079 5.4824160467463354 -1
v 94.125479520581749 8.0132100204243706 -1
v 90.822058876958749 3.9868522118988201 -1
v 98.498780487804879 2.0172250233698934 -1
v 100 1.9999995848665622 -1
v 46.852534167480229 10.723614996961791 -1
v 46.298052845450528 9.795727642466689 -1
v 44.790456244225389 11.187280676610399 -1
v 43.266229064677844 9.6841898294572495 -1
v 44.857189826675146 9.4911780632711213 -1
v 45.181647441372924 8.0564299164536681 -1
v 44.159954907612402 8.7417194977147403 -1
v 45.856597451356279 5.9264860048932242 -1
v 43.375531142814019 8.3309378778091148 -1
v 45.165435939381318 6.9422951286635666 -1
v 46.815313478016506 7.2514985347337806 -1
v 46.123233801572184 7.9655978947207036 -1
v 50.843051794496489 6.9355064533279931 -1
v 55.476627969270183 10.389280540968947 -1
v 53.342137342681397 10.484192995047465 -1
v 80.525862094131213 10.171327897915674 -1
v 5.756921623746905 9.7142733306913946 -1
v 7.6474735466485626 7.3553271308080337 -1
v 0 13.249997249740975 -1
v 5.7923382055175443 11.810422437282694 -1
v 4.6911911116700074 13.331389109562817 -1
v 6.2119797875191001 10.344990297413663 -1
v 89.033244870555123 5.9347605448429572 -1
v 89.546276209161263 7.8555041071865688 -1
v 90.007495616656101 5.528314154269018 -1
v 92.306492777502299 7.7835698936099478 -1
v 96.300750793345173 5.2219944433358387 -1
v 99.327039558055901 13.250129751038484 -1
v 99.06998246137988 11.102539050352755 -1
v 100 13.249997249740975 -1
v 96.833775099625626 9.1528890530619549 -1
v 98.079484995231766 10.643332820117916 -1
v 100 11.499997612982733 -1
v 97.787882307394497 0.59545574457975758 -1
v 100 5.9999987545996873 -1
v 42.308333565788402 9.7581766525738871 -1
v 48.497585068183028 7.0668472959011446 -1
v 47.450782616764315 8.3961243558530114 -1
v 47.659764867941078 7.4941460104540925 -1
v 48.392640012970517 8.9286748696506297 -1
v 4.8542219316469755 9.7163839075712843 -1
v 1.0199128512740927 9.6129493283949987 -1
v 91.374924382917669 6.5053944695805725 -1
v 92.24838951138679 6.747693435775421 -1
v 93.191011752814745 8.5137779503148305 -1
v 99.194156444485358 3.926068237872514 -1
v 99.301593984664464 2.092009328480624 -1
v 98.861572883394516 0.73530568149817965 -1
v 49.434968640653096 6.9843388172559484 -1
v 5.1302702198098027 7.4033111017147464 -1
v 5.9427410599710146 8.418487693282497 -1
v 5.418161631742505 8.1012121790567342 -1
v 6.7740667996588053 5.5385787857245212 -1
v 7.5948194062093091 5.5230557935411655 -1
v 7.8055773095685508 4.259565333110805 -1
v 6.5469616284615526 6.8355101521138364 -1
v 4.9738202313153828 6.4533027417499076 -1
v 6.042232140927899 5.5499678301848077 -1
v 47.812049541583477 3.5441301987242344 -1
v 47.392497161426988 1.1422199921999723 -1
v 49.411877892326352 2.1859421632728702 -1
v 49.16947203819614 1.0998422181240384 -1
v 50.094989417512956 0.9352305035192735 -1
v 52.789622101994738 2.86647201963694 -1
v 52.637498884196368 1.3889885536558595 -1
v 53.713581507019832 2.1232110722274613 -1
v 53.637026871658499 1.0108591461547385 -1
v 54.612011144125105 2.7449942364256175 -1
v 51.714022545793512 2.1311992541282168 -1
v 51.331439389141586 3.9850374913578941 -1
v 51.699654223003776 5.6140219248408911 -1
v 51.306215862448127 1.0787042615764542 -1
v 50.889133772017075 2.8779871772358101 -1
v 51.871343325455221 3.1886009953574153 -1
v 53.013543163287046 4.610136338442822 -1
v 53.923512907589711 3.742914490947272 -1
v 54.985400704026596 5.5456564382407381 -1
v 54.747525299672965 4.5050069907558017 -1
v 50.486944587282807 4.9859380978401653 -1
v 48.701141382166199 5.0039207796874106 -1
v 50.306230308050957 3.9764861074241602 -1
v 49.591621691792561 5.3397395982656368 -1
v 52.825775998109975 6.3848074403097472 -1
v 52.612933424670182 5.4343449334504221 -1
v 53.829666919348959 5.7660461137300825 -1
v 53.945107568853999 4.8432527050186582 -1
v 56.832636942241088 3.5428503768405912 -1
v 55.768566402773985 2.7313977412462096 -1
v 55.90417334544194 1.6465889577697399 -1
v 58.148197445916594 2.3546576643066337 -1
v 57.694675670048895 1.1444727072257144 -1
v 56.718783754857284 0.87652495131637875 -1
v 59.842983601690086 1.2717787698112797 -1
v 60.500731702360227 2.6624688507673731 -1
v 60.754185064594004 4.0329515467685715 -1
v 59.718793062117442 4.4559388463926952 -1
v 59.447844943017842 3.1834973742304102 -1
v 59.608436894804143 6.7547042090060208 -1
v 60.862617495281157 6.8146488411863864 -1
v 60.503390573655672 8.2509733713818711 -1
v 60.129943190901194 9.2653002558627797 -1
v 58.582042068860275 5.1638957806813375 -1
v 59.90437923738078 5.7131578855933993 -1
v 57.972814912026642 8.7240795631882779 -1
v 59.083501509923053 9.2724122145045254 -1
v 58.19163563558746 10.766398295785912 -1
v 58.783600998676818 7.7023330145990991 -1
v 58.368877474269048 9.8000164510036285 -1
v 56.783918963018913 9.5742915142957195 -1
v 57.833392478409024 4.1896792128556744 -1
v 56.884818819092295 5.6011842855880456 -1
v 55.893287138142689 4.7410032518649095 -1
v 57.040648301695015 4.6218715079713055 -1
v 59.623835842771228 7.6705559380874382 -1
v 57.287247696103961 7.1863290244342588 -1
v 58.311287519378084 6.3513294151761031 -1
v 57.169436051903283 10.657256492473646 -1
v 57.878052631263735 11.796446648419249 -1
v 59.291246391032885 12.037928873551078 -1
v 59.954737007486806 11.464898501861677 -1
v 55.949716994649705 8.5517297947906812 -1
v 54.970844790828629 7.8071937641289226 -1
v 56.881358223339106 8.2346424830223786 -1
v 54.817571165995219 6.6438931203556537 -1
v 56.236857336408498 6.3726576521262039 -1
v 38.984731023634147 4.1704199631721588 -1
v 37.947659164668373 5.6846442913757045 -1
v 37.667390294066465 4.6485214955802983 -1
v 39.572249270821899 5.5308155231486094 -1
v 38.883906978954698 5.1534263273779182 -1
v 38.397455600056261 6.9253004837711938 -1
v 39.790538498888928 6.9298869430955596 -1
v 37.490805178177204 8.0147740554957796 -1
v 38.66426828099118 8.652809665181616 -1
v 40.554573214436907 5.7525899297667964 -1
v 42.70883305925053 5.9304553493466523 -1
v 42.81647776654966 7.2565614709011799 -1
v 41.743605401158469 5.5085729001209911 -1
v 44.313188888449879 5.7302559734565754 -1
v 44.621881291513247 4.1949091900501863 -1
v 41.548958265676326 7.05370701778868 -1
v 40.792225127609974 6.6366221984697473 -1
v 42.811131658382486 4.0374615495834929 -1
v 43.704462649919222 6.6249710547544796 -1
v 41.391089360140001 8.3213255024425496 -1
v 41.391106894077119 9.3515145427951669 -1
v 38.856516958438505 7.6111915591778843 -1
v 39.444310522618693 8.9099894627047878 -1
v 38.057215261195232 10.068064440800393 -1
v 37.012788000158615 11.141697764547009 -1
v 35.993304324179263 11.368495278036896 -1
v 37.812868267228794 9.3152204262322815 -1
v 45.44053401720717 4.894581226760204 -1
v 43.633531432492788 4.9914625064222049 -1
v 44.662416326532593 3.2157371567343929 -1
v 41.989596250089541 3.3660417627899455 -1
v 40.801104904197494 3.6105140823033506 -1
v 41.65508369189309 2.5968474190985247 -1
v 42.976511113737295 3.0128208951123749 -1
v 39.94287693687297 3.3241248763479363 -1
v 38.316575579721139 2.7186909868317932 -1
v 39.134033100300726 3.0138288084054645 -1
v 38.963613688048852 1.1175459125291498 -1
v 35.832920303705841 3.0548302073716438 -1
v 35.975782061238846 13.658158138865057 -1
v 35.111870480983484 13.458693137603905 -1
v 65.579898849255414 11.967872902515349 -1
v 66.513771411110838 10.73128374000818 -1
v 85.988601747774766 7.3225689185561746 -1
v 83.066027269723378 8.5256364197979693 -1
v 82.931087818723583 9.9488409447406472 -1
v 81.493524232036137 6.3054951423835766 -1
v 80.800135093839032 6.9244718036261697 -1
v 81.878748911716471 9.3977007067410394 -1
v 83.976387494140809 10.393619727570883 -1
v 84.297642407630363 9.4979174613859563 -1
v 84.797754004760108 10.843025499272882 -1
v 83.35695905866227 7.6073072755489433 -1
v 85.06604659940804 9.6893496776669235 -1
v 82.467059117450262 7.1257917409337388 -1
v 82.934986751564139 6.2330665799722498 -1
v 83.960435906279045 11.498417386786073 -1
v 80.619393442099664 5.004003065367157 -1
v 81.437366523167356 5.2152310795200592 -1
v 81.97641464510113 7.9399128289547614 -1
v 80.343940985544094 7.3358400003119346 -1
v 65.228781026685454 9.1432777426816578 -1
v 22.375647530039469 8.893337424434451 -1
v 1.2476549190202513 5.0091847554503479 -1
v 1.3834352429164678 6.2230692674470953 -1
v 0.28520699652172993 6.629100270244364 -1
v 2.7018803198827959 5.2296944156135057 -1
v 1.932099689218941 10.761423397335975 -1
v 3.2388022086903252 5.7588210206031345 -1
v 0 9.7499979762244919 -1
v 2.9466640623994951 7.0983279881571395 -1
v 0.70250205178558389 7.9618656495929576 -1
v 1.0658435471472807 10.846267098770014 -1
v 73.823674435420685 7.9841679509247365 -1
v 88.061545498159859 7.8558613515241262 -1
v 88.5982068090307 7.4209834468419293 -1
v 89.567565340804762 8.9204519301098681 -1
v 87.494357127461541 6.2311820113665215 -1
v 86.472473823325089 6.3123103511265244 -1
v 89.115615823810543 9.7769759960114957 -1
v 87.521625821441006 8.6950586259409679 -1
v 88.004495168431376 10.284906396614661 -1
v 86.897333239374404 8.9560171680856371 -1
v 85.743307511609444 8.3498200284068549 -1
v 84.993317288489493 8.085102687513265 -1
v 84.73951805003621 6.7450443272022023 -1
v 85.512722063193749 5.7546695801291161 -1
v 84.926291431174292 5.9229147543431857 -1
v 85.525949938316032 4.67828588909539 -1
v 86.438269436998084 5.2397603197726568 -1
v 86.645295411271121 7.404334441472284 -1
v 87.348804233494974 7.5859154968163134 -1
v 97.560177227115986 7.5530965361564197 -1
v 0.69280079373165804 13.224314638689037 -1
v 98.937502962137955 5.624998832437206 -1
v 98.862484592918605 4.4962219599665723 -1
v 99.939341028317131 6.921064544246061 -1
v 98.474273216403219 6.6256730063186096 -1
v 99.097206398009277 6.7209433803326979 -1
v 99.597881909649772 8.744264087705039 -1
v 97.951476413590569 6.8580766161702744 -1
v 97.427610004970603 5.0211610889583422 -1
v 48.989153015013571 7.9741090967143311 -1
v 3.725219530467482 9.0640583503186711 -1
v 2.8546699678316467 10.523963127506127 -1
v 3.2389118237377259 8.8579915106180973 -1
v 47.028329126859589 4.8829427364564451 -1
v 46.983781817919684 3.9862658904287689 -1
v 46.960222480548296 2.7992551139631674 -1
v 47.942189943119452 4.4860116452805476 -1
v 47.007049478892064 6.0664541820743025 -1
v 57.489349223904135 2.950038442335714 -1
v 59.751821224704358 13.533857459592278 -1
v 58.831983526033326 12.769656123486659 -1
v 40.402302331916871 9.2016567698503255 -1
v 88.54548328307466 9.9982780036209729 -1
v 48.13268842253936 6.0358847720591129 -1
v 3.1662242829490355 7.7324940444675123 -1
f 521 522 299 
f 268 167 166 
f 198 791 909 
f 202 201 787 
f 197 789 198 
f 294 159 293 
f 248 226 268 
f 639 995 908 
f 452 434 462 
f 788 639 904 
f 1223 790 1225 
f 408 327 373 
f 262 56 338 
f 999 1229 1050 
f 55 301 338 
f 1128 1127 238 
f 192 191 803 
f 910 641 797 
f 1045 1140 1148 
f 800 911 798 
f 62 1269 259 
f 486 1087 1085 
f 2 1002 802 
f 802 3 2 
f 256 299 522 
f 169 266 224 
f 242 262 263 
f 1051 645 917 
f 4 1006 5 
f 267 248 165 
f 643 802 1000 
f 226 248 267 
f 8 7 807 
f 6 915 806 
f 732 187 561 
f 252 233 331 
f 506 45 44 
f 646 809 807 
f 253 1092 1090 
f 766 888 515 
f 681 682 679 
f 247 268 225 
f 731 188 732 
f 1119 1268 1118 
f 731 189 188 
f 297 268 226 
f 1196 37 36 
f 266 225 295 
f 555 187 186 
f 1039 1041 1170 
f 221 710 711 
f 411 186 185 
f 508 847 48 
f 1100 1103 1096 
f 343 409 304 
f 343 411 185 
f 40 39 494 
f 11 10 679 
f 181 180 415 
f 1091 155 154 
f 162 328 1194 
f 181 377 182 
f 180 179 345 
f 658 41 498 
f 603 212 454 
f 177 176 347 
f 1036 959 960 
f 588 564 305 
f 668 240 670 
f 682 12 11 
f 784 633 783 
f 637 548 629 
f 632 626 633 
f 1120 257 1119 
f 632 633 627 
f 781 626 631 
f 273 270 242 
f 143 1124 258 
f 175 174 435 
f 300 269 256 
f 442 457 378 
f 599 1181 1182 
f 297 226 1195 
f 436 435 367 
f 368 403 322 
f 327 408 133 
f 322 171 400 
f 272 275 138 
f 245 289 69 
f 322 172 171 
f 295 210 332 
f 403 367 173 
f 266 168 247 
f 170 169 224 
f 1043 1041 1042 
f 735 990 991 
f 156 329 157 
f 520 53 52 
f 1124 243 1125 
f 549 876 310 
f 349 20 717 
f 275 139 138 
f 677 137 136 
f 382 445 592 
f 430 429 282 
f 272 265 275 
f 380 19 18 
f 274 271 264 
f 381 382 348 
f 257 1122 1121 
f 1111 1266 235 
f 27 316 28 
f 166 165 248 
f 247 167 268 
f 952 217 691 
f 164 163 229 
f 220 273 976 
f 416 417 382 
f 247 168 167 
f 1269 62 61 
f 358 383 317 
f 526 316 695 
f 274 264 302 
f 273 220 1149 
f 303 275 265 
f 25 358 26 
f 861 524 697 
f 271 275 264 
f 695 430 282 
f 141 274 243 
f 371 405 227 
f 370 404 324 
f 413 414 378 
f 185 184 343 
f 437 453 347 
f 405 438 455 
f 567 420 384 
f 33 32 369 
f 370 325 404 
f 21 20 349 
f 492 1197 227 
f 630 517 625 
f 1196 492 657 
f 554 410 375 
f 295 333 553 
f 976 242 975 
f 1192 296 229 
f 297 298 211 
f 160 250 161 
f 35 34 227 
f 1197 492 1196 
f 228 501 497 
f 24 23 381 
f 155 329 156 
f 494 498 40 
f 293 252 331 
f 1159 1192 1193 
f 1140 1135 1139 
f 59 270 261 
f 252 158 157 
f 206 1040 1168 
f 674 512 260 
f 963 968 969 
f 295 332 266 
f 726 725 363 
f 1103 1094 151 
f 161 328 162 
f 1093 1094 1092 
f 153 1093 154 
f 329 252 157 
f 1162 1158 1161 
f 495 496 249 
f 407 406 762 
f 78 360 79 
f 496 494 39 
f 498 41 40 
f 396 431 358 
f 126 125 394 
f 38 37 249 
f 357 84 83 
f 504 506 505 
f 44 43 505 
f 573 571 572 
f 584 762 746 
f 1091 253 1265 
f 46 45 251 
f 673 672 259 
f 43 42 658 
f 46 251 509 
f 364 73 365 
f 508 47 509 
f 73 364 74 
f 47 508 48 
f 374 210 295 
f 665 847 508 
f 161 250 328 
f 57 262 58 
f 88 685 89 
f 223 762 865 
f 261 270 241 
f 230 294 1189 
f 955 691 236 
f 121 350 122 
f 851 852 686 
f 458 281 448 
f 960 1034 662 
f 1186 291 330 
f 311 737 350 
f 386 423 350 
f 213 296 1192 
f 666 668 510 
f 263 858 975 
f 114 813 115 
f 351 585 880 
f 1234 1235 1246 
f 1104 1092 254 
f 1120 147 146 
f 566 311 419 
f 919 116 115 
f 1132 1138 1145 
f 1189 1188 230 
f 419 311 350 
f 389 130 129 
f 534 244 538 
f 169 168 266 
f 739 740 388 
f 1268 1119 257 
f 547 342 341 
f 407 223 675 
f 389 129 390 
f 387 131 130 
f 401 366 582 
f 164 229 267 
f 371 33 369 
f 394 356 393 
f 575 313 573 
f 256 269 299 
f 447 354 395 
f 262 242 270 
f 693 85 859 
f 688 519 689 
f 256 961 858 
f 693 86 85 
f 353 389 425 
f 229 296 267 
f 84 357 859 
f 647 923 944 
f 530 1198 222 
f 109 108 821 
f 67 512 513 
f 407 675 246 
f 106 842 107 
f 839 111 831 
f 1269 261 1270 
f 274 140 271 
f 110 829 111 
f 820 830 109 
f 138 137 272 
f 251 958 509 
f 165 164 267 
f 1060 1059 1063 
f 105 1030 946 
f 845 655 844 
f 266 247 225 
f 495 228 497 
f 931 938 824 
f 948 91 849 
f 287 326 529 
f 230 290 328 
f 946 845 842 
f 1237 1239 1247 
f 90 849 91 
f 150 149 1096 
f 300 256 858 
f 656 854 518 
f 89 685 689 
f 269 300 301 
f 301 54 269 
f 263 301 300 
f 92 91 948 
f 834 940 941 
f 96 95 814 
f 303 244 340 
f 676 675 514 
f 302 221 339 
f 928 927 649 
f 141 140 274 
f 818 96 814 
f 926 819 94 
f 340 244 531 
f 303 265 535 
f 931 489 935 
f 98 833 99 
f 264 340 302 
f 343 554 409 
f 1009 1008 920 
f 273 241 270 
f 263 338 301 
f 1123 145 1122 
f 505 231 504 
f 1091 329 155 
f 1121 1122 258 
f 1099 1107 1097 
f 160 159 294 
f 66 65 260 
f 1097 1096 1098 
f 1098 237 1097 
f 268 297 225 
f 372 370 31 
f 400 224 366 
f 139 271 140 
f 1118 1141 1144 
f 63 62 259 
f 361 362 320 
f 699 700 704 
f 258 1128 1121 
f 1124 142 243 
f 159 158 293 
f 166 248 268 
f 258 144 143 
f 520 690 299 
f 522 961 256 
f 860 704 605 
f 1096 1103 150 
f 50 255 51 
f 299 269 520 
f 671 65 64 
f 367 174 173 
f 372 31 30 
f 690 51 255 
f 326 527 529 
f 237 148 147 
f 270 58 262 
f 230 1191 290 
f 362 398 320 
f 269 54 53 
f 742 288 740 
f 54 301 55 
f 1149 1150 1270 
f 424 387 353 
f 222 1199 530 
f 60 59 261 
f 1269 60 261 
f 341 540 543 
f 275 271 139 
f 253 1090 1265 
f 238 1121 1128 
f 1094 1093 152 
f 676 135 246 
f 302 340 342 
f 136 676 677 
f 503 502 500 
f 264 275 303 
f 132 327 133 
f 362 75 74 
f 858 263 300 
f 56 262 57 
f 451 432 433 
f 82 81 391 
f 598 604 601 
f 267 296 1195 
f 76 75 361 
f 297 211 333 
f 359 360 78 
f 359 78 77 
f 226 267 1195 
f 298 1195 335 
f 392 355 391 
f 83 82 724 
f 241 1270 261 
f 270 59 58 
f 671 672 673 
f 66 512 67 
f 1187 292 1190 
f 672 63 259 
f 243 142 141 
f 670 674 260 
f 330 291 234 
f 233 252 291 
f 666 510 673 
f 982 983 884 
f 284 980 728 
f 374 295 553 
f 225 333 295 
f 252 293 158 
f 289 70 69 
f 294 292 1189 
f 69 68 245 
f 289 527 70 
f 294 293 292 
f 160 294 250 
f 71 326 72 
f 246 135 134 
f 230 250 294 
f 213 335 296 
f 274 302 339 
f 208 543 872 
f 1192 1194 290 
f 236 521 255 
f 847 50 49 
f 555 186 376 
f 478 461 449 
f 618 565 476 
f 375 410 763 
f 345 413 412 
f 477 476 306 
f 548 346 380 
f 443 470 457 
f 443 628 624 
f 306 345 412 
f 466 475 464 
f 285 366 401 
f 380 346 717 
f 590 774 445 
f 566 384 585 
f 124 421 125 
f 128 390 129 
f 126 393 127 
f 447 427 751 
f 723 757 315 
f 423 422 123 
f 123 422 124 
f 722 724 355 
f 281 1217 760 
f 26 358 431 
f 430 695 316 
f 383 418 381 
f 317 459 429 
f 76 361 363 
f 397 360 318 
f 749 754 755 
f 355 392 570 
f 982 725 552 
f 76 363 77 
f 365 72 326 
f 462 472 452 
f 171 170 400 
f 322 285 368 
f 465 466 480 
f 473 468 453 
f 405 212 227 
f 34 33 371 
f 372 30 525 
f 28 526 29 
f 527 326 71 
f 326 399 365 
f 424 132 131 
f 373 327 288 
f 230 328 250 
f 328 290 1194 
f 234 291 329 
f 329 291 252 
f 1265 330 234 
f 1184 1171 216 
f 1190 233 1174 
f 293 331 292 
f 332 210 582 
f 266 332 224 
f 297 333 225 
f 702 553 211 
f 702 703 701 
f 298 335 601 
f 337 213 1159 
f 337 335 213 
f 455 212 405 
f 337 601 335 
f 1159 1158 336 
f 336 598 601 
f 262 338 263 
f 55 338 56 
f 1125 339 221 
f 274 339 243 
f 303 340 264 
f 342 340 531 
f 341 342 531 
f 540 341 541 
f 341 708 547 
f 302 342 710 
f 554 184 183 
f 304 376 411 
f 345 379 415 
f 588 763 410 
f 413 179 178 
f 379 345 306 
f 548 18 17 
f 876 718 719 
f 175 435 437 
f 457 442 444 
f 416 381 23 
f 309 610 460 
f 380 717 19 
f 417 349 590 
f 567 121 120 
f 386 350 737 
f 118 117 882 
f 656 948 684 
f 352 586 568 
f 1209 279 1210 
f 353 739 388 
f 327 388 288 
f 127 393 395 
f 446 356 428 
f 81 80 392 
f 724 722 551 
f 579 759 578 
f 127 395 128 
f 724 82 391 
f 693 859 978 
f 418 25 24 
f 396 358 317 
f 363 359 77 
f 360 359 318 
f 318 725 397 
f 433 432 319 
f 362 361 75 
f 363 361 320 
f 364 362 74 
f 398 362 321 
f 363 320 726 
f 359 363 318 
f 73 72 365 
f 362 364 321 
f 399 326 287 
f 321 364 365 
f 224 332 582 
f 285 322 366 
f 403 368 367 
f 367 323 436 
f 466 323 480 
f 367 368 323 
f 32 31 370 
f 371 369 324 
f 324 369 370 
f 370 369 32 
f 371 324 405 
f 34 371 227 
f 29 526 525 
f 370 372 325 
f 373 288 406 
f 373 407 408 
f 483 334 700 
f 478 479 461 
f 410 183 182 
f 344 588 410 
f 768 764 765 
f 766 515 767 
f 377 181 415 
f 410 377 344 
f 414 178 177 
f 414 347 442 
f 306 476 565 
f 344 377 415 
f 548 380 18 
f 717 346 549 
f 416 23 22 
f 383 381 348 
f 22 21 417 
f 382 417 445 
f 317 609 459 
f 358 25 418 
f 350 567 419 
f 420 120 119 
f 385 581 580 
f 580 426 394 
f 586 587 422 
f 122 423 123 
f 389 387 130 
f 424 353 388 
f 327 132 424 
f 312 569 739 
f 425 389 354 
f 387 389 353 
f 395 390 128 
f 389 390 354 
f 392 391 81 
f 724 391 355 
f 451 360 432 
f 570 313 722 
f 394 393 126 
f 395 393 356 
f 421 394 125 
f 580 394 385 
f 428 356 426 
f 390 395 354 
f 396 317 429 
f 430 431 396 
f 283 982 987 
f 319 432 397 
f 462 398 321 
f 398 284 727 
f 399 287 452 
f 365 399 472 
f 224 400 170 
f 322 400 366 
f 374 481 210 
f 611 610 309 
f 469 456 468 
f 175 437 176 
f 173 172 403 
f 322 403 172 
f 325 863 862 
f 404 286 438 
f 438 324 404 
f 438 405 324 
f 740 288 388 
f 706 535 705 
f 408 407 246 
f 406 407 373 
f 246 134 408 
f 133 408 134 
f 554 343 184 
f 409 375 763 
f 377 410 182 
f 588 305 441 
f 304 411 343 
f 186 411 376 
f 413 345 179 
f 477 378 457 
f 414 413 178 
f 412 413 378 
f 177 347 414 
f 442 347 308 
f 345 415 180 
f 415 379 344 
f 417 416 22 
f 381 416 382 
f 21 349 417 
f 310 774 590 
f 381 418 24 
f 358 418 383 
f 567 350 121 
f 566 419 384 
f 118 981 881 
f 585 420 880 
f 422 421 124 
f 394 421 385 
f 586 422 386 
f 421 422 385 
f 350 423 122 
f 422 423 386 
f 387 424 131 
f 327 424 388 
f 750 354 447 
f 353 425 312 
f 428 427 446 
f 356 394 426 
f 574 577 575 
f 446 447 395 
f 426 314 428 
f 448 428 608 
f 348 460 609 
f 698 699 696 
f 431 430 316 
f 429 430 396 
f 316 27 431 
f 26 431 27 
f 319 571 433 
f 360 397 432 
f 80 451 392 
f 79 451 80 
f 434 536 537 
f 434 452 536 
f 367 435 174 
f 437 435 402 
f 464 436 323 
f 435 436 402 
f 453 437 402 
f 347 176 437 
f 438 286 440 
f 440 454 455 
f 604 606 600 
f 598 602 597 
f 606 604 607 
f 440 439 454 
f 589 763 897 
f 589 304 409 
f 442 308 444 
f 378 414 442 
f 444 308 467 
f 636 624 628 
f 456 467 468 
f 444 443 457 
f 1219 310 876 
f 382 592 348 
f 446 427 447 
f 356 446 395 
f 579 751 427 
f 750 425 354 
f 427 428 448 
f 608 428 314 
f 614 474 615 
f 461 450 429 
f 282 429 450 
f 429 459 461 
f 360 451 79 
f 392 451 433 
f 545 536 287 
f 980 462 434 
f 453 402 473 
f 347 453 308 
f 439 597 454 
f 454 597 603 
f 440 455 438 
f 212 455 454 
f 719 877 878 
f 467 780 444 
f 624 470 443 
f 477 412 378 
f 580 581 314 
f 688 1208 519 
f 609 317 383 
f 459 449 461 
f 460 348 594 
f 449 459 460 
f 449 613 478 
f 450 461 479 
f 398 462 284 
f 472 462 321 
f 464 402 436 
f 475 463 464 
f 466 464 323 
f 464 463 473 
f 285 616 368 
f 445 593 592 
f 368 616 480 
f 466 465 475 
f 468 467 308 
f 456 628 780 
f 453 468 308 
f 468 463 469 
f 475 469 463 
f 469 278 878 
f 476 470 277 
f 477 470 476 
f 482 210 481 
f 483 479 481 
f 365 472 321 
f 452 472 399 
f 464 473 402 
f 468 473 463 
f 401 612 285 
f 401 482 612 
f 596 309 595 
f 475 278 469 
f 476 619 618 
f 305 564 565 
f 412 477 306 
f 457 470 477 
f 613 610 611 
f 479 478 471 
f 481 479 471 
f 479 204 450 
f 368 480 323 
f 465 480 474 
f 481 471 482 
f 483 481 374 
f 478 613 471 
f 210 482 401 
f 334 483 374 
f 479 483 204 
f 906 788 904 
f 910 795 800 
f 194 193 798 
f 189 731 734 
f 3 1004 1003 
f 807 916 810 
f 187 555 561 
f 817 648 814 
f 813 923 919 
f 100 826 101 
f 109 821 823 
f 97 96 818 
f 113 112 838 
f 843 1077 1252 
f 1182 227 212 
f 228 249 657 
f 497 493 495 
f 498 663 661 
f 39 38 496 
f 493 663 494 
f 228 495 249 
f 493 494 495 
f 249 496 38 
f 494 496 495 
f 501 228 1180 
f 493 497 502 
f 503 663 502 
f 658 498 231 
f 1163 1166 1173 
f 659 215 503 
f 500 502 501 
f 960 215 1035 
f 1180 228 1181 
f 1176 1177 1271 
f 501 502 497 
f 659 503 500 
f 661 503 215 
f 663 498 494 
f 231 661 662 
f 958 664 232 
f 505 43 658 
f 504 664 506 
f 45 506 251 
f 44 505 506 
f 952 691 955 
f 255 665 236 
f 47 46 509 
f 508 507 665 
f 251 664 958 
f 507 508 509 
f 674 670 240 
f 510 670 671 
f 873 716 240 
f 513 512 511 
f 260 512 66 
f 1198 513 511 
f 245 68 513 
f 67 513 68 
f 871 706 868 
f 265 272 677 
f 683 679 848 
f 683 515 681 
f 897 898 589 
f 617 619 620 
f 15 14 776 
f 625 517 620 
f 1200 1239 1240 
f 1232 1234 1008 
f 685 851 688 
f 853 687 689 
f 53 520 269 
f 52 51 690 
f 522 521 236 
f 690 521 299 
f 236 691 522 
f 973 692 971 
f 979 1047 760 
f 1204 1216 1205 
f 450 204 699 
f 325 372 525 
f 29 525 30 
f 525 524 863 
f 316 526 28 
f 525 526 524 
f 70 527 71 
f 529 527 530 
f 245 530 289 
f 544 540 533 
f 530 527 289 
f 529 528 546 
f 530 245 1198 
f 529 530 528 
f 534 531 244 
f 534 532 539 
f 705 535 265 
f 867 870 868 
f 1199 546 528 
f 541 534 539 
f 303 535 538 
f 532 537 539 
f 514 706 705 
f 538 871 534 
f 287 536 452 
f 537 536 533 
f 537 533 539 
f 537 532 870 
f 303 538 244 
f 538 535 871 
f 540 539 533 
f 531 541 341 
f 542 544 545 
f 547 708 208 
f 534 541 531 
f 540 541 539 
f 1199 542 546 
f 872 1218 707 
f 1218 540 544 
f 222 875 1218 
f 545 544 533 
f 544 542 1218 
f 536 545 533 
f 529 546 287 
f 542 545 546 
f 287 546 545 
f 712 711 547 
f 302 710 221 
f 782 17 16 
f 623 625 620 
f 718 549 346 
f 310 349 549 
f 117 116 921 
f 1011 1010 648 
f 887 575 577 
f 723 315 977 
f 727 552 726 
f 728 983 727 
f 211 553 333 
f 334 374 553 
f 410 554 183 
f 409 554 375 
f 557 555 376 
f 562 561 555 
f 560 557 376 
f 765 766 890 
f 560 376 768 
f 557 556 562 
f 276 766 765 
f 560 889 557 
f 562 563 885 
f 734 729 736 
f 768 376 304 
f 560 558 889 
f 562 555 557 
f 559 731 732 
f 563 562 556 
f 561 562 559 
f 891 773 563 
f 563 487 730 
f 344 379 564 
f 565 564 379 
f 306 565 379 
f 619 476 277 
f 1243 1244 351 
f 566 1242 738 
f 420 567 120 
f 419 567 384 
f 738 568 737 
f 688 686 1208 
f 745 743 280 
f 583 742 741 
f 571 392 433 
f 319 572 571 
f 753 397 283 
f 392 571 570 
f 575 572 756 
f 570 573 313 
f 571 573 570 
f 756 572 280 
f 280 743 744 
f 281 579 448 
f 572 575 573 
f 577 578 576 
f 576 758 757 
f 313 575 887 
f 577 574 752 
f 576 757 887 
f 748 752 744 
f 427 448 579 
f 281 758 759 
f 579 578 751 
f 385 587 581 
f 426 580 314 
f 1212 1211 1215 
f 608 761 458 
f 582 366 224 
f 210 401 582 
f 745 583 741 
f 982 283 725 
f 407 762 223 
f 406 742 746 
f 566 585 351 
f 384 420 585 
f 586 386 737 
f 587 586 352 
f 587 352 1214 
f 385 422 587 
f 588 344 564 
f 763 588 441 
f 618 778 779 
f 764 589 898 
f 310 590 349 
f 445 417 590 
f 278 475 775 
f 596 475 465 
f 445 774 593 
f 592 593 595 
f 775 596 591 
f 592 595 594 
f 460 594 309 
f 348 592 594 
f 596 595 593 
f 309 594 595 
f 591 596 593 
f 596 465 614 
f 598 597 439 
f 1164 603 205 
f 598 439 604 
f 602 598 336 
f 205 1158 1162 
f 1179 1180 1165 
f 440 864 607 
f 703 702 211 
f 336 601 337 
f 600 701 703 
f 337 1159 336 
f 597 602 205 
f 205 603 597 
f 212 603 599 
f 607 439 440 
f 601 604 600 
f 404 862 286 
f 695 697 524 
f 607 604 439 
f 704 606 605 
f 864 440 286 
f 606 607 605 
f 761 608 314 
f 448 608 458 
f 348 609 383 
f 459 609 460 
f 309 596 614 
f 449 460 610 
f 285 612 615 
f 471 613 612 
f 471 612 482 
f 615 612 611 
f 610 613 449 
f 612 613 611 
f 474 614 465 
f 309 614 611 
f 614 615 611 
f 615 474 616 
f 615 616 285 
f 480 616 474 
f 622 617 620 
f 634 778 617 
f 778 618 617 
f 305 565 618 
f 620 619 277 
f 617 618 619 
f 623 620 277 
f 620 517 622 
f 277 624 623 
f 637 635 307 
f 631 622 517 
f 631 632 622 
f 277 470 624 
f 623 621 625 
f 780 628 443 
f 621 623 624 
f 621 629 625 
f 15 781 16 
f 781 630 782 
f 14 13 783 
f 903 276 898 
f 617 622 634 
f 877 628 456 
f 307 635 636 
f 635 629 621 
f 638 548 782 
f 629 638 625 
f 548 638 629 
f 781 517 630 
f 632 631 626 
f 626 776 783 
f 632 627 634 
f 784 13 12 
f 633 786 627 
f 632 634 622 
f 627 900 778 
f 636 635 621 
f 307 718 637 
f 624 636 621 
f 636 628 879 
f 548 637 346 
f 629 635 637 
f 782 548 17 
f 625 638 630 
f 906 904 200 
f 796 907 794 
f 794 196 195 
f 641 910 996 
f 999 1073 1229 
f 912 803 805 
f 1048 1082 486 
f 1081 1083 643 
f 1003 4 3 
f 804 190 735 
f 1087 1083 1084 
f 989 988 895 
f 811 646 810 
f 806 808 916 
f 487 563 773 
f 838 841 113 
f 1014 1010 1013 
f 1056 647 1074 
f 837 653 836 
f 949 846 819 
f 550 1007 1008 
f 929 842 844 
f 489 824 930 
f 933 934 932 
f 1019 1020 1249 
f 652 938 931 
f 654 831 1024 
f 932 934 1023 
f 828 651 826 
f 829 832 111 
f 654 1029 840 
f 1058 930 650 
f 844 1258 822 
f 950 846 949 
f 1272 1236 846 
f 1196 657 249 
f 1181 657 492 
f 658 231 505 
f 41 658 42 
f 500 1177 1067 
f 1067 1035 215 
f 1179 1271 501 
f 1176 1168 660 
f 662 661 215 
f 498 661 231 
f 215 960 662 
f 231 662 504 
f 502 663 493 
f 661 663 503 
f 506 664 251 
f 1034 664 504 
f 847 665 255 
f 665 507 956 
f 1151 239 1150 
f 666 219 669 
f 1127 1133 238 
f 874 715 873 
f 669 668 666 
f 873 668 667 
f 669 219 1132 
f 668 669 667 
f 671 670 260 
f 668 670 510 
f 65 671 260 
f 672 671 64 
f 63 672 64 
f 259 239 673 
f 666 673 239 
f 671 673 510 
f 716 674 240 
f 512 674 511 
f 675 223 865 
f 514 677 676 
f 135 676 136 
f 246 675 676 
f 677 514 705 
f 677 272 137 
f 994 902 678 
f 902 786 784 
f 848 10 9 
f 679 683 681 
f 918 9 8 
f 771 767 680 
f 994 515 888 
f 682 681 678 
f 682 678 785 
f 11 679 682 
f 848 679 10 
f 683 680 767 
f 89 687 855 
f 656 850 948 
f 851 88 87 
f 685 688 689 
f 852 87 86 
f 761 1204 458 
f 1210 853 519 
f 684 849 855 
f 851 685 88 
f 1208 686 1206 
f 853 689 519 
f 89 689 687 
f 690 255 521 
f 52 690 520 
f 956 955 665 
f 963 857 962 
f 962 857 961 
f 963 964 968 
f 85 84 859 
f 693 951 852 
f 581 1204 761 
f 760 694 979 
f 450 698 282 
f 526 695 524 
f 450 699 698 
f 860 696 704 
f 282 697 695 
f 861 696 860 
f 696 697 698 
f 282 698 697 
f 700 204 483 
f 699 204 700 
f 334 701 700 
f 701 704 700 
f 702 701 334 
f 704 701 600 
f 553 702 334 
f 703 211 298 
f 298 601 703 
f 600 703 601 
f 704 600 606 
f 704 696 699 
f 677 705 265 
f 514 675 706 
f 865 584 866 
f 706 865 866 
f 875 511 716 
f 873 715 716 
f 341 543 708 
f 208 708 543 
f 709 711 712 
f 1128 1125 1126 
f 342 547 710 
f 711 710 547 
f 712 547 208 
f 711 709 1126 
f 208 714 712 
f 714 1130 712 
f 714 208 715 
f 1131 667 1132 
f 208 872 715 
f 1131 1130 713 
f 715 707 716 
f 713 714 715 
f 875 716 707 
f 674 716 511 
f 19 717 20 
f 549 349 717 
f 637 718 346 
f 307 879 718 
f 628 877 879 
f 1219 278 775 
f 119 881 420 
f 881 981 720 
f 116 919 921 
f 721 1007 883 
f 570 722 355 
f 887 722 313 
f 724 357 83 
f 757 723 551 
f 551 723 724 
f 724 723 357 
f 397 725 283 
f 363 725 318 
f 727 726 320 
f 725 726 552 
f 398 727 320 
f 728 727 284 
f 728 980 867 
f 209 984 728 
f 559 562 885 
f 896 730 487 
f 894 896 487 
f 734 733 729 
f 733 731 559 
f 731 733 734 
f 187 732 188 
f 559 732 561 
f 885 733 559 
f 729 733 730 
f 990 735 736 
f 190 189 734 
f 644 803 804 
f 734 736 190 
f 729 988 990 
f 190 736 735 
f 738 737 311 
f 586 737 568 
f 566 738 311 
f 1212 279 1209 
f 312 739 353 
f 740 739 569 
f 741 740 569 
f 740 741 742 
f 743 741 569 
f 741 743 745 
f 742 583 746 
f 406 288 742 
f 312 747 569 
f 744 574 756 
f 743 747 744 
f 747 748 744 
f 754 749 1230 
f 754 1230 745 
f 986 985 987 
f 584 746 886 
f 569 747 743 
f 748 747 312 
f 750 748 312 
f 751 752 748 
f 745 280 754 
f 397 753 319 
f 425 750 312 
f 751 750 447 
f 752 751 578 
f 751 748 750 
f 577 752 578 
f 744 752 574 
f 753 283 987 
f 753 749 755 
f 280 572 754 
f 755 319 753 
f 754 572 755 
f 572 319 755 
f 744 756 280 
f 575 756 574 
f 551 722 887 
f 576 759 758 
f 760 758 281 
f 315 757 758 
f 578 759 576 
f 281 759 579 
f 1217 281 458 
f 693 978 523 
f 314 581 761 
f 581 1214 1204 
f 746 762 406 
f 865 762 584 
f 897 763 441 
f 409 763 589 
f 765 764 276 
f 304 589 764 
f 276 888 766 
f 768 765 558 
f 515 683 767 
f 890 772 770 
f 918 807 809 
f 770 891 889 
f 560 768 558 
f 304 764 768 
f 487 773 893 
f 891 563 556 
f 766 767 772 
f 892 772 767 
f 809 771 680 
f 771 769 892 
f 892 767 771 
f 890 770 889 
f 892 773 891 
f 773 892 893 
f 1219 774 310 
f 593 774 591 
f 596 775 475 
f 1219 775 591 
f 776 14 783 
f 781 776 626 
f 779 441 305 
f 900 516 899 
f 627 778 634 
f 779 778 777 
f 779 777 897 
f 618 779 305 
f 444 780 443 
f 456 780 467 
f 781 15 776 
f 517 781 631 
f 781 782 16 
f 638 782 630 
f 784 783 13 
f 783 633 626 
f 12 785 784 
f 785 902 784 
f 682 785 12 
f 902 785 678 
f 627 786 516 
f 633 784 786 
f 905 201 200 
f 198 789 793 
f 791 793 1220 
f 197 196 907 
f 789 792 793 
f 793 792 640 
f 907 792 789 
f 198 909 199 
f 909 788 906 
f 907 789 197 
f 1223 792 790 
f 1220 793 640 
f 198 793 791 
f 195 194 911 
f 794 797 796 
f 796 797 641 
f 911 797 794 
f 796 641 1225 
f 796 790 907 
f 911 794 195 
f 910 797 795 
f 193 192 912 
f 798 801 800 
f 800 801 642 
f 912 801 798 
f 910 800 642 
f 800 795 911 
f 912 798 193 
f 1084 801 799 
f 1002 203 913 
f 1004 914 1003 
f 804 803 191 
f 805 803 644 
f 190 804 191 
f 644 804 735 
f 644 1085 1086 
f 805 799 912 
f 4 1003 1006 
f 810 808 811 
f 7 6 916 
f 809 646 769 
f 917 806 1051 
f 646 807 810 
f 771 809 769 
f 848 918 680 
f 916 807 7 
f 808 917 811 
f 988 729 730 
f 646 894 893 
f 923 647 924 
f 1007 550 883 
f 841 945 113 
f 813 944 923 
f 925 95 94 
f 818 814 1016 
f 814 925 817 
f 815 925 819 
f 817 1011 648 
f 835 836 653 
f 925 814 95 
f 1011 815 928 
f 1016 814 648 
f 818 816 941 
f 950 850 846 
f 927 819 649 
f 823 650 824 
f 938 829 830 
f 929 108 107 
f 821 825 823 
f 823 825 650 
f 929 825 821 
f 650 930 824 
f 109 823 820 
f 824 489 931 
f 820 823 824 
f 929 821 108 
f 1017 825 822 
f 939 100 99 
f 489 930 1020 
f 826 939 828 
f 939 833 835 
f 939 826 100 
f 933 828 827 
f 830 829 110 
f 832 829 652 
f 109 830 110 
f 830 820 938 
f 832 652 1025 
f 654 838 839 
f 652 937 1025 
f 111 832 831 
f 833 98 940 
f 833 836 835 
f 834 833 940 
f 837 1076 1022 
f 653 934 1021 
f 835 827 939 
f 833 834 836 
f 834 942 836 
f 941 942 834 
f 1016 1014 1015 
f 839 838 112 
f 841 654 840 
f 111 839 112 
f 654 839 831 
f 1027 654 1024 
f 945 813 114 
f 654 841 838 
f 841 840 945 
f 946 106 105 
f 842 845 844 
f 103 102 1031 
f 1065 1030 105 
f 844 655 1258 
f 844 822 929 
f 946 842 106 
f 845 843 1252 
f 92 950 93 
f 1077 1030 947 
f 50 847 255 
f 847 49 48 
f 918 848 9 
f 683 848 680 
f 855 849 90 
f 948 849 684 
f 518 1240 1239 
f 819 846 649 
f 852 851 87 
f 688 851 686 
f 86 693 852 
f 951 693 523 
f 1242 1200 1240 
f 854 853 518 
f 855 854 684 
f 853 854 687 
f 89 855 90 
f 854 855 687 
f 957 956 507 
f 953 954 1033 
f 962 522 691 
f 692 973 974 
f 1046 692 974 
f 975 242 263 
f 723 977 357 
f 977 978 859 
f 605 607 864 
f 861 697 696 
f 605 864 860 
f 863 861 862 
f 325 862 404 
f 860 862 861 
f 525 863 325 
f 524 861 863 
f 286 862 864 
f 860 864 862 
f 866 584 209 
f 675 865 706 
f 869 866 209 
f 871 868 532 
f 867 869 728 
f 434 537 870 
f 706 866 868 
f 868 866 869 
f 728 869 209 
f 868 869 867 
f 868 870 532 
f 434 870 867 
f 871 532 534 
f 706 871 535 
f 1218 872 543 
f 715 872 707 
f 668 873 240 
f 874 873 667 
f 1131 1129 1130 
f 715 874 713 
f 1218 875 707 
f 875 222 1198 
f 718 876 549 
f 1219 876 719 
f 878 877 456 
f 879 877 719 
f 469 878 456 
f 878 278 1219 
f 718 879 719 
f 879 307 636 
f 881 880 420 
f 880 720 1245 
f 118 881 119 
f 880 881 720 
f 922 882 117 
f 981 882 721 
f 883 550 1246 
f 981 883 720 
f 584 886 209 
f 985 746 583 
f 563 730 885 
f 733 885 730 
f 986 746 985 
f 886 986 984 
f 576 887 577 
f 551 887 757 
f 903 899 901 
f 902 994 901 
f 889 556 557 
f 890 889 558 
f 765 890 558 
f 772 890 766 
f 889 891 556 
f 892 891 770 
f 892 770 772 
f 893 892 769 
f 769 646 893 
f 894 646 811 
f 992 896 811 
f 487 893 894 
f 811 645 992 
f 895 993 1049 
f 811 896 894 
f 896 895 988 
f 779 897 441 
f 898 897 777 
f 899 898 777 
f 898 276 764 
f 900 899 777 
f 901 899 516 
f 778 900 777 
f 516 900 627 
f 902 901 516 
f 903 888 276 
f 902 516 786 
f 678 681 994 
f 899 903 898 
f 888 903 901 
f 639 787 904 
f 787 201 905 
f 200 904 905 
f 787 905 904 
f 200 199 906 
f 909 906 199 
f 907 196 794 
f 792 907 790 
f 1220 908 995 
f 788 995 639 
f 995 909 791 
f 642 1089 1088 
f 910 485 996 
f 911 194 798 
f 797 911 795 
f 912 192 803 
f 801 912 799 
f 484 1222 1221 
f 1260 643 1261 
f 1048 914 1072 
f 993 1053 1048 
f 6 5 915 
f 1052 915 5 
f 806 916 6 
f 810 916 808 
f 811 917 645 
f 808 806 917 
f 807 918 8 
f 680 918 809 
f 813 919 115 
f 812 1009 921 
f 922 117 921 
f 921 1009 920 
f 812 921 919 
f 921 920 922 
f 1007 922 920 
f 922 721 882 
f 647 1056 924 
f 919 923 812 
f 924 488 1054 
f 812 923 924 
f 819 925 94 
f 817 925 815 
f 94 93 926 
f 949 926 93 
f 1055 1232 1008 
f 815 819 927 
f 928 488 1010 
f 815 927 928 
f 929 107 842 
f 825 929 822 
f 1017 1058 825 
f 1063 651 1062 
f 932 935 1062 
f 932 1023 935 
f 933 651 828 
f 1021 934 933 
f 827 835 1021 
f 651 933 932 
f 653 1022 934 
f 937 652 931 
f 1060 1020 1019 
f 937 931 1023 
f 1028 934 1022 
f 1024 1026 1027 
f 1023 931 935 
f 1024 1025 936 
f 938 652 829 
f 820 824 938 
f 939 99 833 
f 828 939 827 
f 98 97 940 
f 941 940 97 
f 818 941 97 
f 942 941 816 
f 816 1016 1015 
f 836 942 837 
f 1015 1057 1076 
f 944 943 647 
f 945 944 813 
f 944 840 1029 
f 945 114 113 
f 944 945 840 
f 1079 1031 1078 
f 845 946 843 
f 1030 1078 947 
f 1238 1237 1272 
f 854 656 684 
f 819 926 949 
f 948 950 92 
f 850 950 948 
f 93 950 949 
f 1202 951 523 
f 852 951 1213 
f 856 954 952 
f 1069 1071 954 
f 1033 1032 959 
f 1036 1037 953 
f 954 856 1032 
f 1069 953 1043 
f 665 955 236 
f 952 955 856 
f 509 958 507 
f 955 956 856 
f 232 959 957 
f 856 956 957 
f 232 957 958 
f 507 958 957 
f 662 1034 504 
f 1034 960 959 
f 659 1067 215 
f 953 1033 1036 
f 962 961 522 
f 858 961 857 
f 217 964 691 
f 857 963 692 
f 964 962 691 
f 963 962 964 
f 217 966 964 
f 968 966 1044 
f 1071 217 952 
f 965 1102 1044 
f 953 1069 954 
f 1044 966 1080 
f 1100 1104 254 
f 969 971 692 
f 966 968 964 
f 969 968 967 
f 1114 971 967 
f 963 969 692 
f 967 1044 1102 
f 1109 1117 1107 
f 967 971 969 
f 1155 1153 970 
f 970 1153 973 
f 1154 1140 1152 
f 970 973 971 
f 974 973 972 
f 1045 974 972 
f 974 858 1046 
f 858 974 975 
f 974 1045 976 
f 242 976 273 
f 974 976 975 
f 1047 315 758 
f 859 357 977 
f 315 1047 977 
f 523 978 979 
f 979 694 1205 
f 978 977 1047 
f 462 980 284 
f 434 867 980 
f 882 981 118 
f 981 721 883 
f 983 982 552 
f 987 982 884 
f 727 983 552 
f 983 728 984 
f 886 984 209 
f 983 984 884 
f 1230 583 745 
f 749 753 987 
f 984 986 884 
f 746 986 886 
f 986 987 884 
f 985 1230 987 
f 896 988 730 
f 993 895 992 
f 991 644 735 
f 988 989 990 
f 729 990 736 
f 990 989 991 
f 1049 991 989 
f 1084 1086 1085 
f 992 645 993 
f 896 992 895 
f 993 645 1053 
f 1049 993 486 
f 515 994 681 
f 901 994 888 
f 909 995 788 
f 1220 995 791 
f 997 1274 1262 
f 1221 640 1223 
f 1073 1226 998 
f 1228 1226 484 
f 1088 1260 485 
f 203 1050 1250 
f 997 1224 1229 
f 1 1221 1223 
f 1002 1000 802 
f 1262 1261 1224 
f 1224 1250 1050 
f 998 1228 1 
f 203 1002 2 
f 1000 1002 913 
f 1004 3 802 
f 1006 914 1005 
f 802 643 1004 
f 1072 1004 643 
f 1052 806 915 
f 1005 914 1048 
f 914 1006 1003 
f 1006 1005 1052 
f 922 1007 721 
f 1008 1007 920 
f 928 1055 488 
f 1054 1055 1008 
f 812 924 1009 
f 1009 924 1054 
f 488 1013 1010 
f 1014 648 1010 
f 815 1011 817 
f 928 1010 1011 
f 1056 1013 488 
f 1057 1014 1012 
f 1056 488 924 
f 1014 1013 1012 
f 1057 1012 1074 
f 1015 837 942 
f 816 1015 942 
f 1057 1015 1014 
f 818 1016 816 
f 1014 1016 648 
f 1063 1062 1020 
f 1255 1251 1253 
f 1061 101 1059 
f 101 826 1059 
f 1017 1257 1249 
f 1249 930 1058 
f 1059 1060 1061 
f 1018 1257 1256 
f 827 1021 933 
f 653 1021 835 
f 837 1022 653 
f 1028 490 1026 
f 1028 1023 934 
f 937 1023 936 
f 1025 1024 831 
f 1026 1024 936 
f 832 1025 831 
f 936 1025 937 
f 936 1023 1028 
f 1026 490 1027 
f 1075 1027 490 
f 1029 1027 943 
f 490 1028 1022 
f 936 1028 1026 
f 1027 1029 654 
f 944 1029 943 
f 660 1035 1067 
f 946 1030 843 
f 500 1067 659 
f 104 1079 1078 
f 856 957 1032 
f 959 1032 957 
f 1032 1033 954 
f 1036 1033 959 
f 959 232 1034 
f 1034 232 664 
f 1038 1035 1040 
f 1036 1035 1038 
f 960 1035 1036 
f 1036 1038 1037 
f 206 1175 1041 
f 1037 206 1041 
f 1040 1035 660 
f 206 1037 1038 
f 216 1264 1263 
f 1037 1043 953 
f 1167 1170 1175 
f 206 1038 1040 
f 206 1168 1175 
f 1042 1041 1039 
f 1039 1184 1263 
f 1080 965 1044 
f 1041 1043 1037 
f 1069 1043 1042 
f 965 1110 1102 
f 968 1044 967 
f 1140 1045 972 
f 976 1045 220 
f 858 857 1046 
f 692 1046 857 
f 760 1047 758 
f 1047 979 978 
f 914 1004 1072 
f 486 993 1048 
f 991 1049 486 
f 895 1049 989 
f 996 1274 1227 
f 1050 1229 1224 
f 1052 1051 806 
f 1053 1051 1005 
f 1006 1052 5 
f 1051 1052 1005 
f 1051 1053 645 
f 1048 1053 1005 
f 1055 1054 488 
f 1009 1054 1008 
f 649 1233 928 
f 1233 1231 1232 
f 1074 647 943 
f 1013 1056 1012 
f 1075 1057 1074 
f 1057 1075 1076 
f 825 1058 650 
f 1064 1061 1060 
f 1249 1058 1017 
f 651 1059 826 
f 1059 651 1063 
f 930 1249 1020 
f 1256 1019 1018 
f 651 932 1062 
f 489 1062 935 
f 1113 1273 1111 
f 1060 1063 1020 
f 1060 1019 1064 
f 1251 1255 655 
f 1062 489 1020 
f 105 104 1065 
f 1078 1065 104 
f 1253 1251 1066 
f 1030 1077 843 
f 1259 217 1071 
f 1039 1263 1267 
f 1042 1070 1069 
f 1080 1259 1068 
f 1267 1070 1042 
f 1070 1068 1259 
f 954 1071 952 
f 1069 1070 1259 
f 1260 1081 643 
f 1048 1072 1082 
f 1001 1227 1274 
f 1073 1001 1229 
f 1056 1074 1012 
f 1075 1074 943 
f 1027 1075 943 
f 1076 1075 490 
f 1022 1076 490 
f 1015 1076 837 
f 947 1066 1077 
f 1252 1066 1251 
f 1078 1030 1065 
f 1031 947 1078 
f 104 103 1079 
f 1031 1079 103 
f 1259 1080 966 
f 1080 1068 1273 
f 910 1088 485 
f 1084 1089 801 
f 1072 1083 1082 
f 1084 1083 1081 
f 643 1083 1072 
f 1089 1081 1088 
f 805 644 1086 
f 644 991 1085 
f 991 486 1085 
f 1087 486 1082 
f 1084 799 1086 
f 805 1086 799 
f 1083 1087 1082 
f 1084 1085 1087 
f 642 1088 910 
f 1260 1088 1081 
f 801 1089 642 
f 1081 1089 1084 
f 235 1112 1111 
f 1264 216 1265 
f 1091 234 329 
f 1093 1091 154 
f 1090 1092 235 
f 1093 1092 253 
f 1093 253 1091 
f 152 1093 153 
f 151 1094 152 
f 1092 1094 254 
f 1114 970 971 
f 1100 1095 1105 
f 149 148 1098 
f 1100 1096 1095 
f 1099 1097 237 
f 1095 1096 1097 
f 149 1098 1096 
f 237 1098 148 
f 1119 1099 237 
f 1099 218 1107 
f 1105 1104 1100 
f 1103 1100 254 
f 1106 1115 1101 
f 1110 1101 1102 
f 1101 1105 1106 
f 967 1102 1114 
f 1094 1103 254 
f 1103 151 150 
f 1112 1104 1101 
f 1092 1104 235 
f 1105 1095 1106 
f 1101 1104 1105 
f 1095 1097 1107 
f 970 1114 1116 
f 1109 1107 218 
f 1095 1107 1106 
f 1144 1143 1118 
f 207 1153 1155 
f 1143 1109 218 
f 1108 1116 1117 
f 1110 965 1113 
f 1110 1113 1112 
f 965 1273 1113 
f 1042 1039 1267 
f 1104 1112 235 
f 1101 1110 1112 
f 965 1080 1273 
f 1112 1113 1111 
f 1102 1115 1114 
f 1115 1106 1116 
f 1101 1115 1102 
f 1106 1117 1116 
f 1116 1108 1155 
f 1114 1115 1116 
f 1107 1117 1106 
f 1108 1117 1109 
f 1133 1127 1134 
f 218 1099 1119 
f 1119 237 1120 
f 218 1119 1118 
f 147 1120 237 
f 1123 1120 146 
f 1268 1121 238 
f 1123 1122 257 
f 145 144 1122 
f 258 1122 144 
f 1120 1123 257 
f 145 1123 146 
f 142 1124 143 
f 243 339 1125 
f 1126 1125 221 
f 258 1124 1125 
f 711 1126 221 
f 1126 709 1127 
f 712 1130 709 
f 1130 1134 709 
f 1125 1128 258 
f 1126 1127 1128 
f 874 1131 713 
f 1109 1143 1108 
f 713 1130 714 
f 1130 1129 1134 
f 874 667 1131 
f 667 669 1132 
f 1136 1132 219 
f 1132 1136 1138 
f 1131 1145 1129 
f 1268 1141 1118 
f 1133 1134 1129 
f 709 1134 1127 
f 1136 1139 1135 
f 1138 1135 1146 
f 1151 1139 219 
f 1136 1135 1138 
f 219 666 1151 
f 1148 1149 220 
f 1135 1154 1146 
f 1145 1147 1129 
f 219 1139 1136 
f 1140 1139 1137 
f 1148 1140 1137 
f 1140 972 1152 
f 238 1133 1141 
f 1147 1144 1133 
f 1147 1133 1129 
f 1156 1142 1146 
f 1118 1143 218 
f 1143 1142 1156 
f 1133 1144 1141 
f 1143 1144 1142 
f 1132 1145 1131 
f 1147 1145 1138 
f 1156 1146 207 
f 1147 1146 1142 
f 1146 1147 1138 
f 1144 1147 1142 
f 1149 1148 1137 
f 1045 1148 220 
f 1150 1149 1137 
f 1149 241 273 
f 1137 1139 1151 
f 259 1269 239 
f 239 1151 666 
f 1137 1151 1150 
f 972 973 1153 
f 1154 1152 207 
f 207 1152 1153 
f 1153 1152 972 
f 1146 1154 207 
f 1140 1154 1135 
f 1116 1155 970 
f 1155 1108 1156 
f 1155 1156 207 
f 1143 1156 1108 
f 1157 1161 1158 
f 1158 205 602 
f 336 1158 602 
f 1188 1160 1161 
f 1192 1159 213 
f 1157 1158 1159 
f 1163 1160 1166 
f 1178 499 1179 
f 1188 1161 1157 
f 1162 1161 1160 
f 1163 1162 1160 
f 603 1164 599 
f 1166 1160 214 
f 1164 1162 1178 
f 205 1162 1164 
f 1178 1162 1163 
f 1165 1178 1179 
f 1164 1165 1183 
f 1166 214 1169 
f 1169 1172 1173 
f 1171 1170 1185 
f 216 1171 330 
f 1040 660 1168 
f 1168 1176 1172 
f 1174 1169 214 
f 1169 1167 1172 
f 1169 1174 1167 
f 1170 1171 1184 
f 1185 1170 1167 
f 291 1186 233 
f 499 1163 1173 
f 1167 1168 1172 
f 1169 1173 1166 
f 499 1173 1172 
f 1187 1174 214 
f 1174 233 1186 
f 1167 1175 1168 
f 1041 1175 1170 
f 1177 1176 660 
f 499 1172 1176 
f 1067 1177 660 
f 1271 500 501 
f 499 1178 1163 
f 1164 1178 1165 
f 1271 1179 499 
f 1180 1179 501 
f 228 657 1181 
f 1164 1183 599 
f 1182 1181 492 
f 1183 1181 599 
f 227 1182 492 
f 599 1182 212 
f 1165 1180 1183 
f 1181 1183 1180 
f 1263 1184 216 
f 1170 1184 1039 
f 1167 1174 1185 
f 1174 1171 1185 
f 330 1171 1186 
f 1174 1186 1171 
f 1187 214 1188 
f 1190 292 331 
f 1160 1188 214 
f 1157 1191 1188 
f 292 1187 1189 
f 1188 1189 1187 
f 233 1190 331 
f 1174 1187 1190 
f 1159 1193 1157 
f 230 1188 1191 
f 1194 1192 229 
f 1192 290 1193 
f 290 1191 1193 
f 1157 1193 1191 
f 229 163 1194 
f 162 1194 163 
f 335 1195 296 
f 297 1195 298 
f 37 1196 249 
f 36 35 1197 
f 36 1197 1196 
f 35 227 1197 
f 513 1198 245 
f 875 1198 511 
f 530 1199 528 
f 1218 1199 222 
f 720 1246 1245 
f 1237 1238 1239 
f 852 1213 686 
f 1214 581 587 
f 1205 1202 523 
f 1206 1202 1201 
f 568 1215 352 
f 1203 1216 1204 
f 1211 1216 1203 
f 1217 1204 1205 
f 979 1205 523 
f 1205 694 1217 
f 1206 1201 1207 
f 1213 1206 686 
f 1209 1207 1201 
f 279 1241 1210 
f 1206 1207 1208 
f 519 1208 1207 
f 1211 1209 1201 
f 738 1212 568 
f 519 1207 1210 
f 1210 1207 1209 
f 1216 1211 1201 
f 1211 1203 1215 
f 279 1212 738 
f 1211 1212 1209 
f 951 1202 1213 
f 1206 1213 1202 
f 1215 1214 352 
f 1204 1214 1203 
f 1215 568 1212 
f 1214 1215 1203 
f 1201 1202 1216 
f 1205 1216 1202 
f 760 1217 694 
f 458 1204 1217 
f 1218 543 540 
f 1218 542 1199 
f 1219 591 774 
f 878 1219 719 
f 1221 1220 640 
f 1222 1220 1221 
f 640 792 1223 
f 998 1226 1228 
f 484 908 1222 
f 908 1220 1222 
f 1225 790 796 
f 1225 641 996 
f 998 1 1225 
f 1225 1227 998 
f 1221 1228 484 
f 1221 1 1228 
f 1227 1001 998 
f 1226 1073 999 
f 1225 996 1227 
f 1229 1001 997 
f 997 1001 1274 
f 1250 1224 913 
f 203 1250 913 
f 998 1001 1073 
f 987 1230 749 
f 583 1230 985 
f 1236 649 846 
f 1234 1231 1248 
f 1233 1232 1055 
f 1234 1232 1231 
f 928 1233 1055 
f 1233 649 1236 
f 1247 1248 1237 
f 1008 1234 550 
f 1243 1235 1247 
f 883 1246 720 
f 1272 846 850 
f 1233 1236 1231 
f 1272 1231 1236 
f 850 656 1238 
f 656 518 1238 
f 1239 1238 518 
f 1240 518 853 
f 1239 1200 1247 
f 853 1241 1240 
f 1241 279 1242 
f 1210 1241 853 
f 279 738 1242 
f 1242 566 1244 
f 1240 1241 1242 
f 1200 1242 1244 
f 351 880 1245 
f 351 1244 566 
f 1200 1244 1243 
f 1235 1243 1245 
f 1245 1243 351 
f 1234 1246 550 
f 1235 1245 1246 
f 1243 1247 1200 
f 1248 1247 1235 
f 1234 1248 1235 
f 1272 1248 1231 
f 1019 1249 1018 
f 1225 1 1223 
f 1262 1224 997 
f 1254 1255 1256 
f 1251 655 845 
f 1066 1252 1077 
f 845 1252 1251 
f 1066 491 1253 
f 1255 1253 491 
f 1257 1254 1256 
f 1254 1257 1258 
f 1256 1255 491 
f 655 1255 1254 
f 491 1064 1256 
f 1019 1256 1064 
f 1249 1257 1018 
f 1258 1257 1017 
f 1258 1017 822 
f 655 1254 1258 
f 217 1259 966 
f 1259 1071 1069 
f 1261 643 1000 
f 1260 1261 1262 
f 913 1261 1000 
f 913 1224 1261 
f 1274 996 485 
f 485 1260 1262 
f 1266 1263 1264 
f 1267 1263 1273 
f 216 330 1265 
f 1266 1264 1090 
f 1265 234 1091 
f 1090 1264 1265 
f 235 1266 1090 
f 1266 1111 1273 
f 1263 1266 1273 
f 1267 1273 1070 
f 1121 1268 257 
f 1141 1268 238 
f 61 60 1269 
f 239 1269 1150 
f 1149 1270 241 
f 1150 1269 1270 
f 1176 1271 499 
f 500 1271 1177 
f 1238 1272 850 
f 1272 1237 1248 
f 1070 1273 1068 
f 1262 1274 485 
