v 0 600 0
v 0 575 0
v 0 550 0
v 0 525 0
v 0 500 0
v 0 475 0
v 0 450 0
v 0 425 0
v 0 400 0
v 0 375 0
v 0 350 0
v 0 325 0
v 0 300 0
v 0 275 0
v 0 250 0
v 0 225 0
v 0 200 0
v 0 175 0
v 0 150 0
v 0 125 0
v 0 100 0
v 25 600 0
v 25 575 0
v 25 550 0
v 25 525 0
v 25 500 0
v 25 475 0
v 25 450 0
v 25 425 0
v 25 400 0
v 25 375 0
v 25 350 0
v 25 325 0
v 25 300 0
v 25 275 0
v 25 250 0
v 25 225 0
v 25 200 0
v 25 175 0
v 25 150 0
v 25 125 0
v 25 100 0
v 50 600 0
v 50 575 0
v 50 550 0
v 50 525 0
v 50 500 0
v 50 475 0
v 50 450 0
v 50 425 0
v 50 400 0
v 50 375 0
v 50 350 0
v 50 325 0
v 50 300 0
v 50 275 0
v 50 250 0
v 50 225 0
v 50 200 0
v 50 175 0
v 50 150 0
v 50 125 0
v 50 100 0
v 75 600 0
v 75 575 0
v 75 550 0
v 75 525 0
v 75 500 0
v 75 475 0
v 75 450 0
v 75 425 0
v 75 400 0
v 75 375 0
v 75 350 0
v 75 325 0
v 75 300 0
v 75 275 0
v 75 250 0
v 75 225 0
v 75 200 0
v 75 175 0
v 75 150 0
v 75 125 0
v 75 100 0
v 100 600 0
v 100 575 0
v 100 550 0
v 100 525 0
v 100 500 0
v 100 475 0
v 100 450 0
v 100 425 0
v 100 400 0
v 100 375 0
v 100 350 0
v 100 325 0
v 100 300 0
v 100 275 0
v 100 225 0
v 100 200 0
v 100 175 0
v 100 150 0
v 100 125 0
v 100 100 0
v 100 75 0
v 125 600 0
v 125 575 0
v 125 550 0
v 125 525 0
v 125 500 0
v 125 475 0
v 125 425 0
v 125 400 0
v 125 375 0
v 125 350 0
v 125 325 0
v 125 300 0
v 125 275 0
v 125 225 0
v 125 200 0
v 125 175 0
v 125 150 0
v 125 125 0
v 125 100 0
v 125 75 0
v 150 600 0
v 150 575 0
v 150 550 0
v 150 500 0
v 150 475 0
v 150 425 0
v 150 400 0
v 150 375 0
v 150 350 0
v 150 325 0
v 150 300 0
v 150 275 0
v 150 250 0
v 150 200 0
v 150 175 0
v 150 150 0
v 150 125 0
v 150 100 0
v 150 75 0
v 175 600 0
v 175 575 0
v 175 550 0
v 175 525 0
v 175 475 0
v 175 450 0
v 175 425 0
v 175 400 0
v 175 375 0
v 175 350 0
v 175 325 0
v 175 300 0
v 175 275 0
v 175 250 0
v 175 225 0
v 175 200 0
v 175 175 0
v 175 150 0
v 175 125 0
v 175 100 0
v 175 75 0
v 200 600 0
v 200 575 0
v 200 550 0
v 200 525 0
v 200 500 0
v 200 475 0
v 200 450 0
v 200 425 0
v 200 400 0
v 200 375 0
v 200 350 0
v 200 325 0
v 200 300 0
v 200 275 0
v 200 250 0
v 200 225 0
v 200 175 0
v 200 150 0
v 200 125 0
v 200 100 0
v 200 75 0
v 225 600 0
v 225 575 0
v 225 550 0
v 225 525 0
v 225 500 0
v 225 475 0
v 225 450 0
v 225 425 0
v 225 400 0
v 225 375 0
v 225 350 0
v 225 325 0
v 225 300 0
v 225 275 0
v 225 250 0
v 225 225 0
v 225 175 0
v 225 150 0
v 225 125 0
v 225 100 0
v 225 75 0
v 250 600 0
v 250 575 0
v 250 550 0
v 250 525 0
v 250 500 0
v 250 475 0
v 250 450 0
v 250 425 0
v 250 400 0
v 250 375 0
v 250 350 0
v 250 325 0
v 250 300 0
v 250 275 0
v 250 250 0
v 250 175 0
v 250 150 0
v 250 125 0
v 250 100 0
v 250 75 0
v 275 600 0
v 275 575 0
v 275 550 0
v 275 525 0
v 275 500 0
v 275 450 0
v 275 425 0
v 275 400 0
v 275 375 0
v 275 350 0
v 275 325 0
v 275 300 0
v 275 275 0
v 275 200 0
v 275 175 0
v 275 150 0
v 275 125 0
v 275 100 0
v 275 75 0
v 300 600 0
v 300 575 0
v 300 550 0
v 300 525 0
v 300 500 0
v 300 450 0
v 300 425 0
v 300 400 0
v 300 375 0
v 300 350 0
v 300 325 0
v 300 300 0
v 300 200 0
v 300 175 0
v 300 150 0
v 300 125 0
v 300 100 0
v 300 75 0
v 325 600 0
v 325 575 0
v 325 550 0
v 325 525 0
v 325 500 0
v 325 475 0
v 325 400 0
v 325 375 0
v 325 275 0
v 325 250 0
v 325 225 0
v 325 200 0
v 325 175 0
v 325 150 0
v 325 125 0
v 325 100 0
v 325 75 0
v 350 600 0
v 350 575 0
v 350 550 0
v 350 525 0
v 350 500 0
v 350 475 0
v 350 450 0
v 350 425 0
v 350 350 0
v 350 325 0
v 350 300 0
v 350 275 0
v 350 250 0
v 350 225 0
v 350 200 0
v 350 175 0
v 350 150 0
v 350 125 0
v 350 100 0
v 375 600 0
v 375 575 0
v 375 550 0
v 375 525 0
v 375 500 0
v 375 475 0
v 375 450 0
v 375 425 0
v 375 400 0
v 375 375 0
v 375 350 0
v 375 325 0
v 375 300 0
v 375 275 0
v 375 250 0
v 375 225 0
v 375 200 0
v 375 175 0
v 375 150 0
v 375 125 0
v 375 100 0
v 400 600 0
v 400 575 0
v 400 550 0
v 400 525 0
v 400 500 0
v 400 475 0
v 400 450 0
v 400 425 0
v 400 400 0
v 400 375 0
v 400 350 0
v 400 325 0
v 400 300 0
v 400 275 0
v 400 250 0
v 400 225 0
v 400 200 0
v 400 175 0
v 400 150 0
v 400 125 0
v 400 100 0
v 425 600 0
v 425 575 0
v 425 550 0
v 425 525 0
v 425 500 0
v 425 475 0
v 425 450 0
v 425 425 0
v 425 400 0
v 425 375 0
v 425 350 0
v 425 325 0
v 425 300 0
v 425 275 0
v 425 250 0
v 425 225 0
v 425 200 0
v 425 175 0
v 425 150 0
v 425 125 0
v 450 600 0
v 450 575 0
v 450 550 0
v 450 525 0
v 450 500 0
v 450 475 0
v 450 450 0
v 450 425 0
v 450 400 0
v 450 375 0
v 450 350 0
v 450 325 0
v 450 300 0
v 450 275 0
v 450 250 0
v 450 225 0
v 450 200 0
v 450 175 0
v 450 150 0
v 450 125 0
v 475 600 0
v 475 575 0
v 475 550 0
v 475 525 0
v 475 500 0
v 475 475 0
v 475 450 0
v 475 425 0
v 475 400 0
v 475 375 0
v 475 350 0
v 475 325 0
v 475 300 0
v 475 275 0
v 475 250 0
v 475 225 0
v 475 200 0
v 475 175 0
v 475 150 0
v 475 125 0
v 500 600 0
v 500 575 0
v 500 550 0
v 500 525 0
v 500 500 0
v 500 475 0
v 500 450 0
v 500 425 0
v 500 400 0
v 500 375 0
v 500 350 0
v 500 325 0
v 500 300 0
v 500 275 0
v 500 250 0
v 500 225 0
v 500 200 0
v 500 175 0
v 500 150 0
v 500 125 0
v 500 100 0
v 525 600 0
v 525 575 0
v 525 550 0
v 525 525 0
v 525 500 0
v 525 475 0
v 525 450 0
v 525 425 0
v 525 400 0
v 525 375 0
v 525 350 0
v 525 325 0
v 525 300 0
v 525 275 0
v 525 250 0
v 525 225 0
v 525 200 0
v 525 175 0
v 525 150 0
v 525 125 0
v 525 100 0
v 550 600 0
v 550 575 0
v 550 550 0
v 550 525 0
v 550 500 0
v 550 475 0
v 550 450 0
v 550 425 0
v 550 400 0
v 550 375 0
v 550 350 0
v 550 325 0
v 550 300 0
v 550 275 0
v 550 250 0
v 550 225 0
v 550 200 0
v 550 175 0
v 550 150 0
v 550 125 0
v 550 100 0
v 575 600 0
v 575 575 0
v 575 550 0
v 575 525 0
v 575 500 0
v 575 475 0
v 575 450 0
v 575 425 0
v 575 400 0
v 575 375 0
v 575 350 0
v 575 325 0
v 575 300 0
v 575 275 0
v 575 250 0
v 575 225 0
v 575 200 0
v 575 175 0
v 575 150 0
v 575 125 0
v 575 100 0
v 600 600 0
v 600 575 0
v 600 550 0
v 600 525 0
v 600 500 0
v 600 475 0
v 600 450 0
v 600 425 0
v 600 400 0
v 600 375 0
v 600 350 0
v 600 325 0
v 600 300 0
v 600 275 0
v 600 250 0
v 600 225 0
v 600 200 0
v 600 175 0
v 600 150 0
v 600 125 0
v 600 100 0
v 625 600 0
v 625 575 0
v 625 550 0
v 625 525 0
v 625 500 0
v 625 475 0
v 625 450 0
v 625 425 0
v 625 400 0
v 625 375 0
v 625 350 0
v 625 325 0
v 625 300 0
v 625 275 0
v 625 250 0
v 625 225 0
v 625 200 0
v 625 175 0
v 625 150 0
v 625 125 0
v 625 100 0
v 650 600 0
v 650 575 0
v 650 550 0
v 650 525 0
v 650 500 0
v 650 475 0
v 650 450 0
v 650 425 0
v 650 400 0
v 650 375 0
v 650 350 0
v 650 325 0
v 650 300 0
v 650 275 0
v 675 600 0
v 675 575 0
v 675 550 0
v 675 525 0
v 675 500 0
v 675 475 0
v 675 450 0
v 675 425 0
v 675 400 0
v 675 375 0
v 675 350 0
v 675 325 0
v 700 600 0
v 700 575 0
v 700 550 0
v 700 525 0
v 700 500 0
v 700 475 0
v 700 450 0
v 700 425 0
v 700 400 0
v 700 375 0
v 700 350 0
v 700 325 0
v -25 -25 0
v 725 -25 0
v 725 625 0
v -25 625 0
f 567 21 20 
f 21 567 42 
f 20 42 41 
f 42 20 21 
f 567 63 42 
f 567 20 19 
f 63 84 62 
f 105 84 63 
f 41 62 61 
f 62 41 63 
f 62 83 61 
f 63 41 42 
f 63 567 105 
f 20 41 40 
f 19 40 18 
f 40 19 20 
f 18 17 567 
f 39 17 18 
f 18 40 39 
f 19 18 567 
f 39 61 60 
f 61 39 40 
f 38 60 59 
f 60 38 39 
f 81 59 60 
f 38 59 58 
f 60 61 82 
f 39 38 17 
f 40 41 61 
f 17 38 37 
f 84 83 62 
f 567 17 16 
f 104 83 84 
f 104 105 125 
f 83 103 102 
f 103 83 104 
f 104 124 103 
f 104 84 105 
f 125 144 143 
f 144 125 567 
f 124 143 123 
f 143 124 125 
f 123 143 142 
f 124 123 103 
f 144 165 143 
f 125 124 104 
f 105 567 125 
f 103 123 122 
f 82 102 101 
f 82 83 102 
f 59 81 80 
f 101 81 82 
f 102 122 101 
f 82 81 60 
f 122 142 141 
f 122 102 103 
f 121 141 140 
f 141 121 122 
f 140 141 162 
f 120 101 121 
f 142 163 141 
f 122 121 101 
f 142 122 123 
f 100 81 101 
f 143 164 142 
f 83 82 61 
f 567 165 144 
f 139 121 140 
f 16 37 15 
f 16 17 37 
f 15 14 567 
f 36 14 15 
f 15 37 36 
f 16 15 567 
f 36 58 57 
f 58 36 37 
f 35 57 56 
f 57 35 36 
f 56 57 78 
f 35 56 55 
f 58 79 57 
f 36 35 14 
f 38 58 37 
f 14 35 34 
f 13 34 12 
f 34 13 14 
f 570 13 12 
f 33 11 12 
f 12 34 33 
f 567 13 570 
f 33 55 54 
f 55 33 34 
f 32 54 53 
f 54 32 33 
f 53 54 75 
f 32 53 52 
f 55 76 54 
f 33 32 11 
f 34 35 55 
f 11 32 31 
f 56 77 55 
f 14 13 567 
f 80 100 79 
f 100 80 81 
f 79 78 57 
f 99 78 79 
f 79 100 99 
f 80 79 58 
f 120 139 119 
f 139 120 121 
f 118 99 119 
f 119 99 120 
f 138 119 139 
f 78 99 98 
f 139 159 138 
f 120 99 100 
f 100 101 120 
f 138 118 119 
f 77 98 76 
f 98 77 78 
f 76 75 54 
f 97 75 76 
f 76 98 97 
f 77 76 55 
f 97 118 117 
f 118 97 98 
f 96 117 116 
f 117 96 97 
f 136 116 117 
f 95 75 96 
f 117 118 137 
f 97 96 75 
f 98 99 118 
f 53 75 74 
f 137 118 138 
f 78 77 56 
f 80 58 59 
f 116 115 96 
f 140 161 139 
f 570 12 11 
f 165 186 185 
f 186 165 567 
f 164 185 184 
f 185 164 165 
f 186 207 185 
f 163 142 164 
f 207 227 226 
f 227 207 567 
f 206 226 205 
f 226 206 207 
f 227 246 226 
f 207 206 185 
f 186 567 207 
f 185 206 205 
f 163 184 162 
f 184 163 164 
f 160 139 161 
f 183 161 162 
f 162 184 183 
f 161 140 162 
f 183 205 204 
f 205 183 184 
f 182 204 203 
f 204 182 183 
f 224 203 204 
f 182 203 202 
f 204 205 225 
f 183 182 161 
f 184 185 205 
f 161 182 160 
f 225 205 226 
f 162 141 163 
f 245 225 226 
f 245 246 264 
f 225 244 243 
f 244 225 245 
f 245 263 244 
f 245 226 246 
f 264 281 280 
f 281 264 567 
f 244 263 262 
f 280 263 264 
f 300 280 281 
f 279 263 280 
f 281 321 300 
f 264 263 245 
f 246 567 264 
f 299 280 300 
f 224 243 242 
f 224 225 243 
f 223 242 241 
f 242 223 224 
f 243 261 242 
f 224 223 203 
f 262 279 278 
f 279 262 263 
f 262 278 261 
f 278 279 299 
f 277 278 298 
f 242 261 260 
f 279 280 299 
f 262 261 243 
f 244 262 243 
f 277 261 278 
f 300 321 299 
f 225 224 204 
f 227 567 246 
f 203 223 202 
f 158 138 159 
f 159 160 181 
f 137 158 157 
f 137 138 158 
f 159 181 158 
f 139 160 159 
f 181 202 201 
f 181 160 182 
f 179 157 180 
f 157 158 180 
f 201 180 181 
f 200 180 201 
f 202 222 201 
f 180 158 181 
f 202 181 182 
f 137 157 156 
f 136 156 155 
f 136 137 156 
f 134 116 135 
f 155 135 136 
f 156 178 155 
f 136 135 116 
f 179 200 199 
f 200 179 180 
f 178 199 177 
f 199 178 179 
f 177 199 198 
f 178 177 155 
f 200 221 199 
f 179 178 156 
f 157 179 156 
f 154 135 155 
f 201 222 200 
f 137 136 117 
f 259 222 241 
f 202 223 241 
f 220 199 221 
f 222 240 221 
f 241 260 259 
f 241 222 202 
f 259 277 276 
f 277 259 260 
f 276 275 259 
f 296 275 276 
f 295 274 275 
f 275 274 259 
f 276 277 297 
f 259 274 222 
f 260 261 277 
f 240 222 274 
f 219 220 239 
f 240 220 221 
f 197 177 198 
f 219 198 220 
f 220 240 239 
f 198 199 220 
f 240 258 239 
f 258 240 273 
f 238 258 257 
f 258 238 239 
f 292 257 258 
f 237 219 238 
f 256 257 291 
f 239 238 219 
f 240 274 273 
f 218 198 219 
f 273 274 294 
f 221 200 222 
f 242 260 241 
f 176 155 177 
f 292 258 273 
f 164 143 165 
f 567 568 281 
f 256 238 257 
f 10 31 30 
f 10 11 31 
f 9 30 29 
f 30 9 10 
f 31 52 30 
f 10 9 570 
f 52 74 73 
f 52 31 32 
f 50 51 72 
f 73 51 52 
f 74 95 73 
f 52 51 30 
f 74 52 53 
f 30 51 50 
f 8 29 7 
f 29 8 9 
f 7 6 570 
f 28 6 7 
f 7 29 28 
f 8 7 570 
f 28 50 49 
f 50 28 29 
f 27 49 48 
f 49 27 28 
f 70 48 49 
f 27 48 47 
f 49 50 71 
f 28 27 6 
f 29 30 50 
f 6 27 26 
f 73 72 51 
f 9 8 570 
f 94 72 73 
f 94 95 115 
f 72 93 92 
f 93 72 94 
f 94 114 93 
f 94 73 95 
f 115 134 133 
f 134 115 116 
f 114 133 113 
f 133 114 115 
f 113 133 132 
f 114 113 93 
f 134 154 133 
f 115 114 94 
f 95 96 115 
f 93 113 112 
f 71 92 70 
f 71 72 92 
f 70 69 48 
f 91 69 70 
f 70 92 91 
f 71 70 49 
f 112 132 131 
f 112 92 93 
f 90 91 111 
f 112 111 91 
f 131 130 112 
f 91 90 69 
f 132 152 131 
f 112 91 92 
f 132 112 113 
f 69 90 89 
f 133 153 132 
f 72 71 50 
f 74 75 95 
f 48 69 68 
f 5 26 4 
f 5 6 26 
f 4 3 570 
f 25 3 4 
f 4 26 25 
f 5 4 570 
f 47 68 67 
f 47 48 68 
f 3 25 24 
f 46 25 47 
f 67 46 47 
f 45 25 46 
f 68 89 67 
f 47 25 26 
f 27 47 26 
f 45 46 67 
f 1 2 23 
f 24 2 3 
f 570 1 22 
f 1 570 2 
f 2 24 23 
f 2 570 3 
f 23 45 44 
f 45 23 24 
f 22 44 43 
f 44 22 23 
f 65 43 44 
f 22 43 570 
f 44 45 66 
f 23 22 1 
f 24 25 45 
f 570 43 64 
f 66 45 67 
f 5 570 6 
f 88 66 67 
f 88 89 110 
f 66 87 86 
f 87 66 88 
f 88 109 87 
f 88 67 89 
f 111 130 129 
f 130 111 112 
f 110 129 109 
f 129 110 111 
f 109 129 128 
f 110 109 88 
f 130 149 129 
f 111 110 89 
f 68 69 89 
f 87 109 108 
f 65 86 85 
f 65 66 86 
f 64 85 570 
f 85 64 65 
f 86 107 85 
f 65 64 43 
f 108 128 127 
f 128 108 109 
f 107 127 106 
f 127 107 108 
f 106 127 126 
f 107 106 85 
f 128 147 127 
f 108 107 86 
f 87 108 86 
f 85 106 570 
f 129 148 128 
f 66 65 44 
f 90 111 89 
f 570 106 126 
f 131 150 130 
f 10 570 11 
f 154 176 153 
f 176 154 155 
f 151 131 152 
f 175 152 153 
f 153 176 175 
f 152 132 153 
f 175 197 196 
f 197 175 176 
f 174 196 195 
f 196 174 175 
f 195 196 217 
f 174 195 194 
f 197 218 196 
f 175 174 152 
f 176 177 197 
f 152 174 173 
f 151 173 150 
f 173 151 152 
f 148 129 149 
f 172 149 150 
f 150 173 172 
f 149 130 150 
f 172 194 193 
f 194 172 173 
f 171 193 192 
f 193 171 172 
f 192 193 214 
f 171 192 191 
f 194 215 193 
f 172 171 149 
f 173 174 194 
f 149 171 170 
f 195 216 194 
f 150 131 151 
f 218 237 217 
f 237 218 219 
f 217 216 195 
f 236 216 217 
f 217 237 236 
f 218 217 196 
f 236 256 255 
f 256 236 237 
f 254 235 255 
f 255 235 236 
f 272 255 256 
f 271 255 272 
f 272 256 290 
f 236 235 216 
f 237 238 256 
f 216 235 234 
f 215 234 214 
f 215 216 234 
f 214 213 192 
f 233 213 214 
f 214 234 233 
f 215 214 193 
f 254 271 253 
f 271 254 255 
f 233 253 252 
f 233 234 253 
f 289 252 253 
f 213 233 232 
f 252 288 270 
f 253 234 254 
f 235 254 234 
f 251 233 252 
f 271 272 310 
f 216 215 194 
f 197 198 218 
f 192 213 212 
f 148 170 169 
f 170 148 149 
f 147 169 168 
f 169 147 148 
f 170 191 169 
f 146 127 147 
f 191 212 211 
f 191 192 212 
f 189 168 190 
f 168 169 190 
f 211 190 191 
f 210 190 211 
f 212 232 211 
f 190 169 191 
f 171 191 170 
f 147 168 167 
f 146 167 145 
f 146 147 167 
f 126 145 570 
f 145 126 146 
f 167 166 145 
f 126 127 146 
f 189 210 188 
f 210 189 190 
f 166 188 187 
f 166 167 188 
f 209 187 188 
f 166 187 570 
f 188 210 209 
f 188 167 189 
f 168 189 167 
f 145 166 570 
f 211 231 210 
f 128 148 147 
f 232 251 231 
f 232 233 251 
f 230 209 210 
f 250 230 231 
f 231 251 250 
f 230 210 231 
f 269 250 251 
f 287 269 270 
f 250 268 249 
f 268 250 269 
f 249 268 267 
f 250 249 230 
f 268 269 286 
f 269 251 270 
f 212 213 232 
f 230 249 248 
f 209 229 228 
f 209 230 229 
f 208 228 570 
f 228 208 209 
f 229 248 228 
f 209 208 187 
f 248 267 266 
f 248 229 230 
f 247 266 265 
f 266 247 248 
f 283 265 266 
f 247 265 570 
f 266 267 284 
f 248 247 228 
f 267 248 249 
f 228 247 570 
f 267 268 285 
f 231 211 232 
f 252 270 251 
f 187 208 570 
f 271 289 253 
f 153 133 154 
f 134 135 154 
f 570 265 282 
f 278 299 298 
f 320 298 299 
f 320 321 342 
f 298 319 318 
f 319 298 320 
f 320 341 319 
f 320 299 321 
f 342 341 320 
f 341 342 362 
f 339 340 361 
f 362 340 341 
f 342 382 362 
f 341 340 319 
f 281 342 321 
f 319 340 339 
f 297 318 296 
f 318 297 298 
f 296 295 275 
f 317 295 296 
f 296 318 317 
f 297 296 276 
f 317 339 338 
f 339 317 318 
f 316 338 337 
f 338 316 317 
f 359 337 338 
f 316 337 336 
f 338 339 360 
f 317 316 295 
f 318 319 339 
f 295 316 315 
f 362 361 340 
f 298 297 277 
f 361 382 381 
f 382 361 362 
f 380 360 381 
f 381 360 361 
f 382 402 381 
f 361 360 339 
f 402 423 422 
f 423 402 382 
f 401 422 421 
f 422 401 402 
f 421 422 443 
f 400 381 401 
f 423 444 422 
f 402 401 381 
f 382 342 423 
f 420 401 421 
f 359 380 379 
f 380 359 360 
f 358 379 378 
f 379 358 359 
f 380 400 379 
f 359 358 337 
f 400 420 419 
f 420 400 401 
f 398 378 399 
f 378 379 399 
f 419 399 400 
f 398 399 419 
f 420 441 419 
f 399 379 400 
f 380 381 400 
f 358 378 377 
f 421 442 420 
f 360 359 338 
f 281 423 342 
f 337 358 357 
f 294 315 293 
f 294 295 315 
f 293 292 273 
f 314 292 293 
f 293 315 314 
f 294 293 273 
f 336 357 335 
f 336 337 357 
f 314 335 313 
f 335 314 336 
f 313 335 334 
f 314 313 292 
f 335 356 334 
f 336 314 315 
f 316 336 315 
f 292 313 312 
f 291 312 311 
f 291 292 312 
f 290 311 310 
f 311 290 291 
f 312 333 311 
f 291 290 256 
f 332 311 333 
f 355 333 334 
f 310 332 331 
f 310 311 332 
f 353 331 332 
f 310 331 330 
f 332 333 354 
f 333 312 334 
f 313 334 312 
f 310 309 271 
f 335 357 356 
f 292 291 257 
f 356 377 376 
f 377 356 357 
f 355 376 375 
f 376 355 356 
f 377 397 376 
f 356 355 334 
f 396 376 397 
f 418 397 398 
f 375 396 395 
f 375 376 396 
f 416 395 396 
f 375 395 394 
f 396 397 417 
f 397 377 398 
f 357 358 377 
f 355 375 374 
f 354 374 353 
f 374 354 355 
f 353 352 331 
f 373 352 353 
f 353 374 373 
f 354 353 332 
f 373 394 393 
f 394 373 374 
f 372 393 392 
f 393 372 373 
f 413 392 393 
f 372 392 391 
f 393 394 414 
f 373 372 352 
f 374 375 394 
f 352 372 371 
f 394 395 415 
f 355 354 333 
f 378 398 377 
f 331 352 351 
f 419 418 398 
f 295 294 274 
f 442 421 443 
f 443 444 465 
f 440 419 441 
f 441 442 463 
f 443 464 442 
f 441 420 442 
f 465 486 464 
f 486 465 568 
f 464 463 442 
f 485 463 464 
f 463 484 462 
f 465 464 443 
f 444 568 465 
f 441 463 462 
f 418 440 439 
f 418 419 440 
f 417 439 438 
f 439 417 418 
f 440 461 439 
f 418 417 397 
f 460 439 461 
f 483 461 462 
f 438 460 459 
f 438 439 460 
f 481 459 460 
f 438 459 458 
f 460 461 482 
f 461 440 462 
f 440 441 462 
f 417 438 437 
f 485 464 486 
f 443 422 444 
f 485 507 506 
f 507 485 486 
f 484 506 505 
f 506 484 485 
f 507 528 506 
f 485 484 463 
f 528 568 527 
f 568 528 507 
f 505 527 526 
f 505 506 527 
f 526 527 568 
f 505 526 525 
f 526 566 525 
f 527 506 528 
f 507 486 568 
f 484 505 504 
f 483 504 482 
f 504 483 484 
f 482 481 460 
f 503 481 482 
f 482 504 503 
f 483 482 461 
f 503 525 524 
f 525 503 504 
f 502 524 523 
f 524 502 503 
f 542 523 524 
f 501 481 502 
f 524 525 566 
f 503 502 481 
f 504 505 525 
f 459 481 480 
f 568 566 526 
f 484 483 462 
f 444 423 568 
f 522 502 523 
f 416 437 436 
f 416 417 437 
f 415 436 435 
f 436 415 416 
f 437 458 436 
f 416 415 395 
f 458 480 479 
f 458 437 438 
f 457 479 478 
f 479 457 458 
f 478 479 500 
f 457 478 477 
f 480 501 479 
f 458 457 436 
f 480 458 459 
f 436 457 456 
f 414 435 413 
f 435 414 415 
f 413 412 392 
f 434 412 413 
f 413 435 434 
f 414 413 393 
f 456 477 476 
f 477 456 457 
f 412 434 433 
f 455 434 456 
f 476 455 456 
f 454 434 455 
f 477 498 476 
f 456 434 435 
f 435 436 456 
f 476 475 455 
f 478 499 477 
f 415 414 394 
f 501 500 479 
f 500 501 522 
f 499 498 477 
f 498 499 520 
f 500 521 499 
f 500 499 478 
f 522 521 500 
f 521 522 542 
f 520 542 541 
f 542 520 521 
f 541 542 566 
f 498 520 519 
f 522 523 542 
f 521 520 499 
f 501 502 522 
f 540 520 541 
f 519 540 518 
f 540 519 520 
f 496 476 497 
f 518 497 519 
f 540 539 518 
f 519 497 498 
f 554 566 565 
f 566 554 541 
f 538 518 539 
f 553 539 554 
f 565 553 554 
f 552 539 553 
f 565 566 569 
f 554 539 540 
f 540 541 554 
f 517 497 518 
f 542 524 566 
f 498 497 476 
f 480 481 501 
f 564 553 565 
f 566 568 569 
f 417 416 396 
f 568 423 281 
f 392 412 411 
f 289 309 308 
f 289 271 309 
f 307 288 308 
f 308 288 289 
f 309 330 308 
f 289 288 252 
f 330 351 350 
f 330 331 351 
f 328 308 329 
f 350 329 330 
f 351 371 350 
f 330 329 308 
f 310 330 309 
f 349 329 350 
f 287 307 306 
f 307 287 288 
f 286 306 305 
f 306 286 287 
f 307 328 306 
f 287 286 269 
f 328 349 327 
f 349 328 329 
f 305 327 326 
f 305 306 327 
f 348 326 327 
f 305 326 325 
f 327 349 348 
f 327 306 328 
f 307 308 328 
f 286 305 304 
f 350 370 349 
f 288 287 270 
f 371 391 390 
f 371 372 391 
f 370 390 389 
f 390 370 371 
f 391 411 390 
f 369 349 370 
f 411 433 432 
f 411 391 392 
f 410 432 431 
f 432 410 411 
f 431 432 453 
f 410 431 430 
f 433 454 432 
f 411 410 390 
f 351 352 371 
f 390 410 409 
f 369 389 368 
f 389 369 370 
f 326 348 347 
f 368 348 369 
f 389 388 368 
f 348 349 369 
f 409 430 429 
f 430 409 410 
f 387 368 388 
f 408 388 409 
f 429 408 409 
f 407 388 408 
f 430 451 429 
f 409 388 389 
f 389 390 409 
f 367 348 368 
f 431 452 430 
f 370 350 371 
f 433 411 412 
f 428 408 429 
f 285 304 303 
f 285 286 304 
f 284 303 302 
f 303 284 285 
f 304 325 303 
f 285 284 267 
f 347 367 346 
f 367 347 348 
f 325 346 324 
f 346 325 347 
f 324 346 345 
f 325 324 303 
f 346 366 345 
f 325 304 305 
f 347 325 326 
f 303 324 323 
f 283 302 301 
f 283 284 302 
f 282 301 569 
f 301 282 283 
f 302 323 301 
f 283 282 265 
f 323 345 344 
f 323 302 303 
f 322 344 343 
f 344 322 323 
f 364 343 344 
f 322 343 569 
f 344 345 365 
f 323 322 301 
f 345 323 324 
f 301 322 569 
f 367 366 346 
f 284 283 266 
f 366 387 386 
f 387 366 367 
f 365 386 385 
f 386 365 366 
f 387 407 386 
f 366 365 345 
f 407 428 427 
f 428 407 408 
f 405 385 406 
f 385 386 406 
f 427 406 407 
f 426 406 427 
f 428 449 427 
f 406 386 407 
f 387 388 407 
f 365 385 384 
f 364 384 383 
f 364 365 384 
f 363 383 569 
f 383 363 364 
f 384 404 383 
f 364 363 343 
f 405 426 425 
f 426 405 406 
f 404 425 403 
f 425 404 405 
f 403 425 424 
f 404 403 383 
f 426 447 425 
f 405 404 384 
f 385 405 384 
f 383 403 569 
f 427 448 426 
f 365 364 344 
f 367 368 387 
f 343 363 569 
f 429 450 428 
f 286 285 268 
f 454 475 453 
f 475 454 455 
f 451 430 452 
f 474 452 453 
f 453 475 474 
f 452 431 453 
f 496 517 516 
f 517 496 497 
f 452 474 473 
f 495 474 496 
f 516 495 496 
f 494 474 495 
f 517 538 516 
f 496 474 475 
f 475 476 496 
f 494 495 516 
f 450 451 472 
f 473 451 452 
f 448 427 449 
f 471 449 450 
f 472 451 473 
f 449 428 450 
f 472 494 493 
f 494 472 473 
f 471 493 492 
f 493 471 472 
f 514 492 493 
f 449 471 470 
f 493 494 515 
f 472 471 450 
f 473 474 494 
f 492 491 471 
f 515 494 516 
f 450 429 451 
f 537 515 516 
f 537 538 552 
f 515 536 535 
f 536 515 537 
f 537 551 536 
f 537 516 538 
f 552 564 563 
f 564 552 553 
f 551 563 550 
f 563 551 552 
f 550 563 562 
f 551 550 536 
f 564 569 563 
f 552 551 537 
f 538 539 552 
f 536 550 549 
f 514 535 534 
f 514 515 535 
f 512 492 513 
f 534 513 514 
f 535 549 534 
f 514 513 492 
f 549 562 561 
f 549 535 536 
f 548 561 560 
f 561 548 549 
f 560 561 569 
f 547 534 548 
f 562 569 561 
f 549 548 534 
f 562 549 550 
f 533 513 534 
f 563 569 562 
f 515 514 493 
f 517 518 538 
f 559 548 560 
f 448 470 469 
f 470 448 449 
f 447 469 468 
f 469 447 448 
f 470 491 469 
f 446 425 447 
f 491 512 511 
f 512 491 492 
f 489 468 490 
f 468 469 490 
f 511 490 491 
f 510 490 511 
f 512 533 511 
f 490 469 491 
f 470 471 491 
f 447 468 467 
f 446 467 445 
f 446 447 467 
f 424 445 569 
f 445 424 446 
f 467 466 445 
f 424 425 446 
f 489 510 488 
f 510 489 490 
f 466 488 487 
f 466 467 488 
f 509 487 488 
f 466 487 569 
f 488 510 509 
f 488 467 489 
f 468 489 467 
f 445 466 569 
f 511 532 510 
f 426 448 447 
f 533 547 532 
f 547 533 534 
f 531 509 510 
f 546 531 532 
f 532 547 546 
f 531 510 532 
f 546 559 558 
f 559 546 547 
f 545 558 557 
f 558 545 546 
f 557 558 569 
f 545 557 556 
f 559 569 558 
f 546 545 531 
f 547 548 559 
f 531 545 544 
f 509 530 529 
f 530 509 531 
f 508 529 569 
f 529 508 509 
f 530 544 529 
f 509 508 487 
f 544 556 555 
f 556 544 545 
f 543 555 569 
f 555 543 544 
f 569 555 556 
f 543 569 529 
f 556 557 569 
f 544 543 529 
f 530 531 544 
f 508 569 487 
f 559 560 569 
f 532 511 533 
f 512 513 533 
f 424 569 403 
f 564 565 569 
f 453 432 454 
f 433 434 454 
f 282 569 570 
f 272 290 310 
